<?xml version="1.0" encoding="utf-8" standalone="no"?>
<!DOCTYPE svg PUBLIC "-//W3C//DTD SVG 1.1//EN"
  "http://www.w3.org/Graphics/SVG/1.1/DTD/svg11.dtd">
<!-- Created with matplotlib (https://matplotlib.org/) -->
<svg height="144pt" version="1.1" viewBox="0 0 216 144" width="216pt" xmlns="http://www.w3.org/2000/svg" xmlns:xlink="http://www.w3.org/1999/xlink">
 <defs>
  <style type="text/css">
*{stroke-linecap:butt;stroke-linejoin:round;}
  </style>
 </defs>
 <g id="figure_1">
  <g id="patch_1">
   <path d="M 0 144 
L 216 144 
L 216 0 
L 0 0 
z
" style="fill:#ffffff;"/>
  </g>
  <g id="axes_1">
   <g id="patch_2">
    <path d="M 17.584646 136.01811 
L 209.520354 136.01811 
L 209.520354 2.834646 
L 17.584646 2.834646 
z
" style="fill:#ffffff;"/>
   </g>
   <g id="matplotlib.axis_1">
    <g id="xtick_1">
     <g id="line2d_1">
      <path clip-path="url(#p24f7a7dc9e)" d="M 17.584646 136.01811 
L 17.584646 2.834646 
" style="fill:none;stroke:#000000;stroke-linecap:square;stroke-opacity:0.1;stroke-width:0.5;"/>
     </g>
     <g id="line2d_2">
      <defs>
       <path d="M 0 0 
L 0 -3.5 
" id="me18cbd0644" style="stroke:#000000;stroke-width:0.8;"/>
      </defs>
      <g>
       <use style="stroke:#000000;stroke-width:0.8;" x="17.584646" xlink:href="#me18cbd0644" y="132.214283"/>
      </g>
     </g>
    </g>
    <g id="xtick_2">
     <g id="line2d_3">
      <path clip-path="url(#p24f7a7dc9e)" d="M 65.568573 136.01811 
L 65.568573 2.834646 
" style="fill:none;stroke:#000000;stroke-linecap:square;stroke-opacity:0.1;stroke-width:0.5;"/>
     </g>
     <g id="line2d_4">
      <g>
       <use style="stroke:#000000;stroke-width:0.8;" x="65.568573" xlink:href="#me18cbd0644" y="132.214283"/>
      </g>
     </g>
     <g id="text_1">
      <!-- 5 -->
      <defs>
       <path d="M 10.796875 72.90625 
L 49.515625 72.90625 
L 49.515625 64.59375 
L 19.828125 64.59375 
L 19.828125 46.734375 
Q 21.96875 47.46875 24.109375 47.828125 
Q 26.265625 48.1875 28.421875 48.1875 
Q 40.625 48.1875 47.75 41.5 
Q 54.890625 34.8125 54.890625 23.390625 
Q 54.890625 11.625 47.5625 5.09375 
Q 40.234375 -1.421875 26.90625 -1.421875 
Q 22.3125 -1.421875 17.546875 -0.640625 
Q 12.796875 0.140625 7.71875 1.703125 
L 7.71875 11.625 
Q 12.109375 9.234375 16.796875 8.0625 
Q 21.484375 6.890625 26.703125 6.890625 
Q 35.15625 6.890625 40.078125 11.328125 
Q 45.015625 15.765625 45.015625 23.390625 
Q 45.015625 31 40.078125 35.4375 
Q 35.15625 39.890625 26.703125 39.890625 
Q 22.75 39.890625 18.8125 39.015625 
Q 14.890625 38.140625 10.796875 36.28125 
z
" id="DejaVuSans-53"/>
      </defs>
      <g transform="translate(63.023573 141.793033)scale(0.08 -0.08)">
       <use xlink:href="#DejaVuSans-53"/>
      </g>
     </g>
    </g>
    <g id="xtick_3">
     <g id="line2d_5">
      <path clip-path="url(#p24f7a7dc9e)" d="M 113.5525 136.01811 
L 113.5525 2.834646 
" style="fill:none;stroke:#000000;stroke-linecap:square;stroke-opacity:0.1;stroke-width:0.5;"/>
     </g>
     <g id="line2d_6">
      <g>
       <use style="stroke:#000000;stroke-width:0.8;" x="113.5525" xlink:href="#me18cbd0644" y="132.214283"/>
      </g>
     </g>
     <g id="text_2">
      <!-- 10 -->
      <defs>
       <path d="M 12.40625 8.296875 
L 28.515625 8.296875 
L 28.515625 63.921875 
L 10.984375 60.40625 
L 10.984375 69.390625 
L 28.421875 72.90625 
L 38.28125 72.90625 
L 38.28125 8.296875 
L 54.390625 8.296875 
L 54.390625 0 
L 12.40625 0 
z
" id="DejaVuSans-49"/>
       <path d="M 31.78125 66.40625 
Q 24.171875 66.40625 20.328125 58.90625 
Q 16.5 51.421875 16.5 36.375 
Q 16.5 21.390625 20.328125 13.890625 
Q 24.171875 6.390625 31.78125 6.390625 
Q 39.453125 6.390625 43.28125 13.890625 
Q 47.125 21.390625 47.125 36.375 
Q 47.125 51.421875 43.28125 58.90625 
Q 39.453125 66.40625 31.78125 66.40625 
z
M 31.78125 74.21875 
Q 44.046875 74.21875 50.515625 64.515625 
Q 56.984375 54.828125 56.984375 36.375 
Q 56.984375 17.96875 50.515625 8.265625 
Q 44.046875 -1.421875 31.78125 -1.421875 
Q 19.53125 -1.421875 13.0625 8.265625 
Q 6.59375 17.96875 6.59375 36.375 
Q 6.59375 54.828125 13.0625 64.515625 
Q 19.53125 74.21875 31.78125 74.21875 
z
" id="DejaVuSans-48"/>
      </defs>
      <g transform="translate(108.4625 141.793033)scale(0.08 -0.08)">
       <use xlink:href="#DejaVuSans-49"/>
       <use x="63.623047" xlink:href="#DejaVuSans-48"/>
      </g>
     </g>
    </g>
    <g id="xtick_4">
     <g id="line2d_7">
      <path clip-path="url(#p24f7a7dc9e)" d="M 161.536427 136.01811 
L 161.536427 2.834646 
" style="fill:none;stroke:#000000;stroke-linecap:square;stroke-opacity:0.1;stroke-width:0.5;"/>
     </g>
     <g id="line2d_8">
      <g>
       <use style="stroke:#000000;stroke-width:0.8;" x="161.536427" xlink:href="#me18cbd0644" y="132.214283"/>
      </g>
     </g>
     <g id="text_3">
      <!-- 15 -->
      <g transform="translate(156.446427 141.793033)scale(0.08 -0.08)">
       <use xlink:href="#DejaVuSans-49"/>
       <use x="63.623047" xlink:href="#DejaVuSans-53"/>
      </g>
     </g>
    </g>
    <g id="xtick_5">
     <g id="line2d_9">
      <path clip-path="url(#p24f7a7dc9e)" d="M 209.520354 136.01811 
L 209.520354 2.834646 
" style="fill:none;stroke:#000000;stroke-linecap:square;stroke-opacity:0.1;stroke-width:0.5;"/>
     </g>
     <g id="line2d_10">
      <g>
       <use style="stroke:#000000;stroke-width:0.8;" x="209.520354" xlink:href="#me18cbd0644" y="132.214283"/>
      </g>
     </g>
     <g id="text_4">
      <!-- 20 -->
      <defs>
       <path d="M 19.1875 8.296875 
L 53.609375 8.296875 
L 53.609375 0 
L 7.328125 0 
L 7.328125 8.296875 
Q 12.9375 14.109375 22.625 23.890625 
Q 32.328125 33.6875 34.8125 36.53125 
Q 39.546875 41.84375 41.421875 45.53125 
Q 43.3125 49.21875 43.3125 52.78125 
Q 43.3125 58.59375 39.234375 62.25 
Q 35.15625 65.921875 28.609375 65.921875 
Q 23.96875 65.921875 18.8125 64.3125 
Q 13.671875 62.703125 7.8125 59.421875 
L 7.8125 69.390625 
Q 13.765625 71.78125 18.9375 73 
Q 24.125 74.21875 28.421875 74.21875 
Q 39.75 74.21875 46.484375 68.546875 
Q 53.21875 62.890625 53.21875 53.421875 
Q 53.21875 48.921875 51.53125 44.890625 
Q 49.859375 40.875 45.40625 35.40625 
Q 44.1875 33.984375 37.640625 27.21875 
Q 31.109375 20.453125 19.1875 8.296875 
z
" id="DejaVuSans-50"/>
      </defs>
      <g transform="translate(204.430354 141.793033)scale(0.08 -0.08)">
       <use xlink:href="#DejaVuSans-50"/>
       <use x="63.623047" xlink:href="#DejaVuSans-48"/>
      </g>
     </g>
    </g>
   </g>
   <g id="matplotlib.axis_2">
    <g id="ytick_1">
     <g id="line2d_11">
      <path clip-path="url(#p24f7a7dc9e)" d="M 17.584646 132.214283 
L 209.520354 132.214283 
" style="fill:none;stroke:#000000;stroke-linecap:square;stroke-opacity:0.1;stroke-width:0.5;"/>
     </g>
     <g id="line2d_12">
      <defs>
       <path d="M 0 0 
L 3.5 0 
" id="mf780040925" style="stroke:#000000;stroke-width:0.8;"/>
      </defs>
      <g>
       <use style="stroke:#000000;stroke-width:0.8;" x="17.584646" xlink:href="#mf780040925" y="132.214283"/>
      </g>
     </g>
    </g>
    <g id="ytick_2">
     <g id="line2d_13">
      <path clip-path="url(#p24f7a7dc9e)" d="M 17.584646 100.820933 
L 209.520354 100.820933 
" style="fill:none;stroke:#000000;stroke-linecap:square;stroke-opacity:0.1;stroke-width:0.5;"/>
     </g>
     <g id="line2d_14">
      <g>
       <use style="stroke:#000000;stroke-width:0.8;" x="17.584646" xlink:href="#mf780040925" y="100.820933"/>
      </g>
     </g>
     <g id="text_5">
      <!-- 0.5 -->
      <defs>
       <path d="M 10.6875 12.40625 
L 21 12.40625 
L 21 0 
L 10.6875 0 
z
" id="DejaVuSans-46"/>
      </defs>
      <g transform="translate(1.362146 103.860308)scale(0.08 -0.08)">
       <use xlink:href="#DejaVuSans-48"/>
       <use x="63.623047" xlink:href="#DejaVuSans-46"/>
       <use x="95.410156" xlink:href="#DejaVuSans-53"/>
      </g>
     </g>
    </g>
    <g id="ytick_3">
     <g id="line2d_15">
      <path clip-path="url(#p24f7a7dc9e)" d="M 17.584646 69.427583 
L 209.520354 69.427583 
" style="fill:none;stroke:#000000;stroke-linecap:square;stroke-opacity:0.1;stroke-width:0.5;"/>
     </g>
     <g id="line2d_16">
      <g>
       <use style="stroke:#000000;stroke-width:0.8;" x="17.584646" xlink:href="#mf780040925" y="69.427583"/>
      </g>
     </g>
     <g id="text_6">
      <!-- 1.0 -->
      <g transform="translate(1.362146 72.466958)scale(0.08 -0.08)">
       <use xlink:href="#DejaVuSans-49"/>
       <use x="63.623047" xlink:href="#DejaVuSans-46"/>
       <use x="95.410156" xlink:href="#DejaVuSans-48"/>
      </g>
     </g>
    </g>
    <g id="ytick_4">
     <g id="line2d_17">
      <path clip-path="url(#p24f7a7dc9e)" d="M 17.584646 38.034233 
L 209.520354 38.034233 
" style="fill:none;stroke:#000000;stroke-linecap:square;stroke-opacity:0.1;stroke-width:0.5;"/>
     </g>
     <g id="line2d_18">
      <g>
       <use style="stroke:#000000;stroke-width:0.8;" x="17.584646" xlink:href="#mf780040925" y="38.034233"/>
      </g>
     </g>
     <g id="text_7">
      <!-- 1.5 -->
      <g transform="translate(1.362146 41.073608)scale(0.08 -0.08)">
       <use xlink:href="#DejaVuSans-49"/>
       <use x="63.623047" xlink:href="#DejaVuSans-46"/>
       <use x="95.410156" xlink:href="#DejaVuSans-53"/>
      </g>
     </g>
    </g>
    <g id="ytick_5">
     <g id="line2d_19">
      <path clip-path="url(#p24f7a7dc9e)" d="M 17.584646 6.640883 
L 209.520354 6.640883 
" style="fill:none;stroke:#000000;stroke-linecap:square;stroke-opacity:0.1;stroke-width:0.5;"/>
     </g>
     <g id="line2d_20">
      <g>
       <use style="stroke:#000000;stroke-width:0.8;" x="17.584646" xlink:href="#mf780040925" y="6.640883"/>
      </g>
     </g>
     <g id="text_8">
      <!-- 2.0 -->
      <g transform="translate(1.362146 9.680258)scale(0.08 -0.08)">
       <use xlink:href="#DejaVuSans-50"/>
       <use x="63.623047" xlink:href="#DejaVuSans-46"/>
       <use x="95.410156" xlink:href="#DejaVuSans-48"/>
      </g>
     </g>
    </g>
   </g>
   <g id="line2d_21">
    <path clip-path="url(#p24f7a7dc9e)" d="M 17.584646 132.214283 
L 18.064485 132.135816 
L 18.544324 131.900611 
L 19.024163 131.509257 
L 19.983842 130.262397 
L 20.943521 128.407699 
L 21.903199 125.963686 
L 22.862878 122.954783 
L 24.302395 117.449511 
L 25.741913 110.86573 
L 27.66127 100.668461 
L 30.060467 86.222864 
L 38.217734 35.060583 
L 40.137091 25.305372 
L 41.576609 19.125496 
L 43.016127 14.07552 
L 43.975806 11.393348 
L 44.935484 9.29034 
L 45.895163 7.78789 
L 46.854841 6.901748 
L 47.334681 6.692903 
L 47.81452 6.641037 
L 48.294359 6.746257 
L 48.774198 7.008251 
L 49.254038 7.426296 
L 50.213716 8.72557 
L 51.173395 10.630594 
L 52.133073 13.122774 
L 53.092752 16.177571 
L 54.53227 21.747256 
L 55.971787 28.388551 
L 57.891144 38.646905 
L 60.290341 53.141209 
L 67.967769 101.58336 
L 69.887126 111.657398 
L 71.326644 118.12815 
L 72.766162 123.506369 
L 73.72584 126.422507 
L 74.685519 128.768202 
L 75.645198 130.520361 
L 76.604876 131.662011 
L 77.084715 132.000262 
L 77.564555 132.182293 
L 78.044394 132.207713 
L 78.524233 132.076464 
L 79.004072 131.788779 
L 79.483912 131.345283 
L 80.44359 129.995344 
L 81.403269 128.039601 
L 82.362947 125.497364 
L 83.322626 122.394306 
L 84.762144 116.759646 
L 86.201662 110.063876 
L 88.121019 99.746413 
L 90.520215 85.196916 
L 98.197643 36.811817 
L 100.117 26.799853 
L 101.556518 20.384548 
L 102.996036 15.072331 
L 103.955715 12.204369 
L 104.915393 9.909061 
L 105.875072 8.208742 
L 106.83475 7.119825 
L 107.314589 6.808148 
L 107.794429 6.652759 
L 108.274268 6.653628 
L 108.754107 6.810797 
L 109.233947 7.124085 
L 110.193625 8.216283 
L 111.153304 9.920715 
L 112.112982 12.221425 
L 113.072661 15.096005 
L 114.512179 20.418988 
L 115.951696 26.84212 
L 117.391214 34.216627 
L 119.310571 45.245735 
L 122.189607 63.45412 
L 126.988 94.162904 
L 128.907357 105.136306 
L 130.826714 114.688572 
L 132.266232 120.68823 
L 133.705749 125.536795 
L 134.665428 128.075972 
L 135.625106 130.028405 
L 136.584785 131.373934 
L 137.064624 131.814628 
L 137.544464 132.099051 
L 138.024303 132.226552 
L 138.504142 132.196898 
L 138.983981 132.010272 
L 139.463821 131.667269 
L 140.423499 130.516608 
L 141.383178 128.757119 
L 142.342856 126.405518 
L 143.302535 123.484704 
L 144.742053 118.100127 
L 146.18157 111.620204 
L 147.621088 104.193093 
L 149.540445 93.110625 
L 152.419481 74.868126 
L 157.217874 44.192447 
L 159.137231 33.26695 
L 160.576749 25.999309 
L 162.016266 19.706885 
L 163.455784 14.529863 
L 164.415463 11.757156 
L 165.375141 9.557436 
L 166.33482 7.954432 
L 167.294498 6.966227 
L 167.774338 6.706435 
L 168.254177 6.603989 
L 168.734016 6.659205 
L 169.213856 6.871965 
L 169.693695 7.24172 
L 170.653373 8.447851 
L 171.613052 10.264553 
L 172.57273 12.671862 
L 173.532409 15.64328 
L 174.971927 21.094369 
L 176.411445 27.629906 
L 177.850962 35.106025 
L 179.770319 46.246953 
L 182.649355 64.538151 
L 186.967909 92.262097 
L 188.887266 103.439224 
L 190.806623 113.257408 
L 192.246141 119.494558 
L 193.685658 124.604724 
L 194.645337 127.327524 
L 195.605015 129.471178 
L 196.564694 131.014884 
L 197.524373 131.943705 
L 198.004212 132.174469 
L 198.484051 132.248767 
L 198.96389 132.166453 
L 199.44373 131.927576 
L 199.923569 131.532586 
L 200.883247 130.278089 
L 201.842926 128.414642 
L 202.802605 125.960376 
L 203.762283 122.93988 
L 205.201801 117.417121 
L 206.641319 110.81962 
L 208.560676 100.605936 
L 209.520354 95.005261 
L 209.520354 95.005261 
" style="fill:none;stroke:#cc1414;stroke-linecap:round;"/>
   </g>
   <g id="line2d_22">
    <path clip-path="url(#p24f7a7dc9e)" d="M -1 69.427583 
L 217 69.427583 
" style="fill:none;stroke:#808080;stroke-dasharray:3.7,1.6;stroke-dashoffset:0;"/>
   </g>
   <g id="patch_3">
    <path d="M 17.584646 136.01811 
L 17.584646 2.834646 
" style="fill:none;stroke:#000000;stroke-linecap:square;stroke-linejoin:miter;"/>
   </g>
   <g id="patch_4">
    <path d="M 17.584646 132.214283 
L 209.520354 132.214283 
" style="fill:none;stroke:#000000;stroke-linecap:square;stroke-linejoin:miter;"/>
   </g>
  </g>
 </g>
 <defs>
  <clipPath id="p24f7a7dc9e">
   <rect height="133.183465" width="191.935709" x="17.584646" y="2.834646"/>
  </clipPath>
 </defs>
</svg>
