<?xml version="1.0" encoding="utf-8" standalone="no"?>
<!DOCTYPE svg PUBLIC "-//W3C//DTD SVG 1.1//EN"
  "http://www.w3.org/Graphics/SVG/1.1/DTD/svg11.dtd">
<!-- Created with matplotlib (https://matplotlib.org/) -->
<svg height="144pt" version="1.1" viewBox="0 0 216 144" width="216pt" xmlns="http://www.w3.org/2000/svg" xmlns:xlink="http://www.w3.org/1999/xlink">
 <defs>
  <style type="text/css">
*{stroke-linecap:butt;stroke-linejoin:round;}
  </style>
 </defs>
 <g id="figure_1">
  <g id="patch_1">
   <path d="M 0 144 
L 216 144 
L 216 0 
L 0 0 
z
" style="fill:#ffffff;"/>
  </g>
  <g id="axes_1">
   <g id="patch_2">
    <path d="M 11.471438 141.165354 
L 211.898562 141.165354 
L 211.898562 2.834646 
L 11.471438 2.834646 
z
" style="fill:#ffffff;"/>
   </g>
   <g id="matplotlib.axis_1">
    <g id="xtick_1">
     <g id="line2d_1">
      <path clip-path="url(#pa8341b4302)" d="M 17.143904 141.165354 
L 17.143904 2.834646 
" style="fill:none;stroke:#000000;stroke-linecap:square;stroke-opacity:0.1;stroke-width:0.5;"/>
     </g>
     <g id="line2d_2">
      <defs>
       <path d="M 0 0 
L 0 -3.5 
" id="m2f61d3fcaf" style="stroke:#000000;stroke-width:0.8;"/>
      </defs>
      <g>
       <use style="stroke:#000000;stroke-width:0.8;" x="17.143904" xlink:href="#m2f61d3fcaf" y="116.754053"/>
      </g>
     </g>
    </g>
    <g id="xtick_2">
     <g id="line2d_3">
      <path clip-path="url(#pa8341b4302)" d="M 64.414452 141.165354 
L 64.414452 2.834646 
" style="fill:none;stroke:#000000;stroke-linecap:square;stroke-opacity:0.1;stroke-width:0.5;"/>
     </g>
     <g id="line2d_4">
      <g>
       <use style="stroke:#000000;stroke-width:0.8;" x="64.414452" xlink:href="#m2f61d3fcaf" y="116.754053"/>
      </g>
     </g>
     <g id="text_1">
      <!-- 2.5 -->
      <defs>
       <path d="M 19.1875 8.296875 
L 53.609375 8.296875 
L 53.609375 0 
L 7.328125 0 
L 7.328125 8.296875 
Q 12.9375 14.109375 22.625 23.890625 
Q 32.328125 33.6875 34.8125 36.53125 
Q 39.546875 41.84375 41.421875 45.53125 
Q 43.3125 49.21875 43.3125 52.78125 
Q 43.3125 58.59375 39.234375 62.25 
Q 35.15625 65.921875 28.609375 65.921875 
Q 23.96875 65.921875 18.8125 64.3125 
Q 13.671875 62.703125 7.8125 59.421875 
L 7.8125 69.390625 
Q 13.765625 71.78125 18.9375 73 
Q 24.125 74.21875 28.421875 74.21875 
Q 39.75 74.21875 46.484375 68.546875 
Q 53.21875 62.890625 53.21875 53.421875 
Q 53.21875 48.921875 51.53125 44.890625 
Q 49.859375 40.875 45.40625 35.40625 
Q 44.1875 33.984375 37.640625 27.21875 
Q 31.109375 20.453125 19.1875 8.296875 
z
" id="DejaVuSans-50"/>
       <path d="M 10.6875 12.40625 
L 21 12.40625 
L 21 0 
L 10.6875 0 
z
" id="DejaVuSans-46"/>
       <path d="M 10.796875 72.90625 
L 49.515625 72.90625 
L 49.515625 64.59375 
L 19.828125 64.59375 
L 19.828125 46.734375 
Q 21.96875 47.46875 24.109375 47.828125 
Q 26.265625 48.1875 28.421875 48.1875 
Q 40.625 48.1875 47.75 41.5 
Q 54.890625 34.8125 54.890625 23.390625 
Q 54.890625 11.625 47.5625 5.09375 
Q 40.234375 -1.421875 26.90625 -1.421875 
Q 22.3125 -1.421875 17.546875 -0.640625 
Q 12.796875 0.140625 7.71875 1.703125 
L 7.71875 11.625 
Q 12.109375 9.234375 16.796875 8.0625 
Q 21.484375 6.890625 26.703125 6.890625 
Q 35.15625 6.890625 40.078125 11.328125 
Q 45.015625 15.765625 45.015625 23.390625 
Q 45.015625 31 40.078125 35.4375 
Q 35.15625 39.890625 26.703125 39.890625 
Q 22.75 39.890625 18.8125 39.015625 
Q 14.890625 38.140625 10.796875 36.28125 
z
" id="DejaVuSans-53"/>
      </defs>
      <g transform="translate(58.053202 126.332803)scale(0.08 -0.08)">
       <use xlink:href="#DejaVuSans-50"/>
       <use x="63.623047" xlink:href="#DejaVuSans-46"/>
       <use x="95.410156" xlink:href="#DejaVuSans-53"/>
      </g>
     </g>
    </g>
    <g id="xtick_3">
     <g id="line2d_5">
      <path clip-path="url(#pa8341b4302)" d="M 111.685 141.165354 
L 111.685 2.834646 
" style="fill:none;stroke:#000000;stroke-linecap:square;stroke-opacity:0.1;stroke-width:0.5;"/>
     </g>
     <g id="line2d_6">
      <g>
       <use style="stroke:#000000;stroke-width:0.8;" x="111.685" xlink:href="#m2f61d3fcaf" y="116.754053"/>
      </g>
     </g>
     <g id="text_2">
      <!-- 5.0 -->
      <defs>
       <path d="M 31.78125 66.40625 
Q 24.171875 66.40625 20.328125 58.90625 
Q 16.5 51.421875 16.5 36.375 
Q 16.5 21.390625 20.328125 13.890625 
Q 24.171875 6.390625 31.78125 6.390625 
Q 39.453125 6.390625 43.28125 13.890625 
Q 47.125 21.390625 47.125 36.375 
Q 47.125 51.421875 43.28125 58.90625 
Q 39.453125 66.40625 31.78125 66.40625 
z
M 31.78125 74.21875 
Q 44.046875 74.21875 50.515625 64.515625 
Q 56.984375 54.828125 56.984375 36.375 
Q 56.984375 17.96875 50.515625 8.265625 
Q 44.046875 -1.421875 31.78125 -1.421875 
Q 19.53125 -1.421875 13.0625 8.265625 
Q 6.59375 17.96875 6.59375 36.375 
Q 6.59375 54.828125 13.0625 64.515625 
Q 19.53125 74.21875 31.78125 74.21875 
z
" id="DejaVuSans-48"/>
      </defs>
      <g transform="translate(105.32375 126.332803)scale(0.08 -0.08)">
       <use xlink:href="#DejaVuSans-53"/>
       <use x="63.623047" xlink:href="#DejaVuSans-46"/>
       <use x="95.410156" xlink:href="#DejaVuSans-48"/>
      </g>
     </g>
    </g>
    <g id="xtick_4">
     <g id="line2d_7">
      <path clip-path="url(#pa8341b4302)" d="M 158.955548 141.165354 
L 158.955548 2.834646 
" style="fill:none;stroke:#000000;stroke-linecap:square;stroke-opacity:0.1;stroke-width:0.5;"/>
     </g>
     <g id="line2d_8">
      <g>
       <use style="stroke:#000000;stroke-width:0.8;" x="158.955548" xlink:href="#m2f61d3fcaf" y="116.754053"/>
      </g>
     </g>
     <g id="text_3">
      <!-- 7.5 -->
      <defs>
       <path d="M 8.203125 72.90625 
L 55.078125 72.90625 
L 55.078125 68.703125 
L 28.609375 0 
L 18.3125 0 
L 43.21875 64.59375 
L 8.203125 64.59375 
z
" id="DejaVuSans-55"/>
      </defs>
      <g transform="translate(152.594298 126.332803)scale(0.08 -0.08)">
       <use xlink:href="#DejaVuSans-55"/>
       <use x="63.623047" xlink:href="#DejaVuSans-46"/>
       <use x="95.410156" xlink:href="#DejaVuSans-53"/>
      </g>
     </g>
    </g>
    <g id="xtick_5">
     <g id="line2d_9">
      <path clip-path="url(#pa8341b4302)" d="M 206.226096 141.165354 
L 206.226096 2.834646 
" style="fill:none;stroke:#000000;stroke-linecap:square;stroke-opacity:0.1;stroke-width:0.5;"/>
     </g>
     <g id="line2d_10">
      <g>
       <use style="stroke:#000000;stroke-width:0.8;" x="206.226096" xlink:href="#m2f61d3fcaf" y="116.754053"/>
      </g>
     </g>
     <g id="text_4">
      <!-- 10.0 -->
      <defs>
       <path d="M 12.40625 8.296875 
L 28.515625 8.296875 
L 28.515625 63.921875 
L 10.984375 60.40625 
L 10.984375 69.390625 
L 28.421875 72.90625 
L 38.28125 72.90625 
L 38.28125 8.296875 
L 54.390625 8.296875 
L 54.390625 0 
L 12.40625 0 
z
" id="DejaVuSans-49"/>
      </defs>
      <g transform="translate(197.319846 126.332803)scale(0.08 -0.08)">
       <use xlink:href="#DejaVuSans-49"/>
       <use x="63.623047" xlink:href="#DejaVuSans-48"/>
       <use x="127.246094" xlink:href="#DejaVuSans-46"/>
       <use x="159.033203" xlink:href="#DejaVuSans-48"/>
      </g>
     </g>
    </g>
   </g>
   <g id="matplotlib.axis_2">
    <g id="ytick_1">
     <g id="line2d_11">
      <path clip-path="url(#pa8341b4302)" d="M 11.471438 116.754053 
L 211.898562 116.754053 
" style="fill:none;stroke:#000000;stroke-linecap:square;stroke-opacity:0.1;stroke-width:0.5;"/>
     </g>
     <g id="line2d_12">
      <defs>
       <path d="M 0 0 
L 3.5 0 
" id="mb93c3a5565" style="stroke:#000000;stroke-width:0.8;"/>
      </defs>
      <g>
       <use style="stroke:#000000;stroke-width:0.8;" x="17.143904" xlink:href="#mb93c3a5565" y="116.754053"/>
      </g>
     </g>
    </g>
    <g id="ytick_2">
     <g id="line2d_13">
      <path clip-path="url(#pa8341b4302)" d="M 11.471438 84.205651 
L 211.898562 84.205651 
" style="fill:none;stroke:#000000;stroke-linecap:square;stroke-opacity:0.1;stroke-width:0.5;"/>
     </g>
     <g id="line2d_14">
      <g>
       <use style="stroke:#000000;stroke-width:0.8;" x="17.143904" xlink:href="#mb93c3a5565" y="84.205651"/>
      </g>
     </g>
     <g id="text_5">
      <!-- 0.2 -->
      <g transform="translate(0.921404 87.245026)scale(0.08 -0.08)">
       <use xlink:href="#DejaVuSans-48"/>
       <use x="63.623047" xlink:href="#DejaVuSans-46"/>
       <use x="95.410156" xlink:href="#DejaVuSans-50"/>
      </g>
     </g>
    </g>
    <g id="ytick_3">
     <g id="line2d_15">
      <path clip-path="url(#pa8341b4302)" d="M 11.471438 51.657249 
L 211.898562 51.657249 
" style="fill:none;stroke:#000000;stroke-linecap:square;stroke-opacity:0.1;stroke-width:0.5;"/>
     </g>
     <g id="line2d_16">
      <g>
       <use style="stroke:#000000;stroke-width:0.8;" x="17.143904" xlink:href="#mb93c3a5565" y="51.657249"/>
      </g>
     </g>
     <g id="text_6">
      <!-- 0.4 -->
      <defs>
       <path d="M 37.796875 64.3125 
L 12.890625 25.390625 
L 37.796875 25.390625 
z
M 35.203125 72.90625 
L 47.609375 72.90625 
L 47.609375 25.390625 
L 58.015625 25.390625 
L 58.015625 17.1875 
L 47.609375 17.1875 
L 47.609375 0 
L 37.796875 0 
L 37.796875 17.1875 
L 4.890625 17.1875 
L 4.890625 26.703125 
z
" id="DejaVuSans-52"/>
      </defs>
      <g transform="translate(0.921404 54.696624)scale(0.08 -0.08)">
       <use xlink:href="#DejaVuSans-48"/>
       <use x="63.623047" xlink:href="#DejaVuSans-46"/>
       <use x="95.410156" xlink:href="#DejaVuSans-52"/>
      </g>
     </g>
    </g>
    <g id="ytick_4">
     <g id="line2d_17">
      <path clip-path="url(#pa8341b4302)" d="M 11.471438 19.108847 
L 211.898562 19.108847 
" style="fill:none;stroke:#000000;stroke-linecap:square;stroke-opacity:0.1;stroke-width:0.5;"/>
     </g>
     <g id="line2d_18">
      <g>
       <use style="stroke:#000000;stroke-width:0.8;" x="17.143904" xlink:href="#mb93c3a5565" y="19.108847"/>
      </g>
     </g>
     <g id="text_7">
      <!-- 0.6 -->
      <defs>
       <path d="M 33.015625 40.375 
Q 26.375 40.375 22.484375 35.828125 
Q 18.609375 31.296875 18.609375 23.390625 
Q 18.609375 15.53125 22.484375 10.953125 
Q 26.375 6.390625 33.015625 6.390625 
Q 39.65625 6.390625 43.53125 10.953125 
Q 47.40625 15.53125 47.40625 23.390625 
Q 47.40625 31.296875 43.53125 35.828125 
Q 39.65625 40.375 33.015625 40.375 
z
M 52.59375 71.296875 
L 52.59375 62.3125 
Q 48.875 64.0625 45.09375 64.984375 
Q 41.3125 65.921875 37.59375 65.921875 
Q 27.828125 65.921875 22.671875 59.328125 
Q 17.53125 52.734375 16.796875 39.40625 
Q 19.671875 43.65625 24.015625 45.921875 
Q 28.375 48.1875 33.59375 48.1875 
Q 44.578125 48.1875 50.953125 41.515625 
Q 57.328125 34.859375 57.328125 23.390625 
Q 57.328125 12.15625 50.6875 5.359375 
Q 44.046875 -1.421875 33.015625 -1.421875 
Q 20.359375 -1.421875 13.671875 8.265625 
Q 6.984375 17.96875 6.984375 36.375 
Q 6.984375 53.65625 15.1875 63.9375 
Q 23.390625 74.21875 37.203125 74.21875 
Q 40.921875 74.21875 44.703125 73.484375 
Q 48.484375 72.75 52.59375 71.296875 
z
" id="DejaVuSans-54"/>
      </defs>
      <g transform="translate(0.921404 22.148222)scale(0.08 -0.08)">
       <use xlink:href="#DejaVuSans-48"/>
       <use x="63.623047" xlink:href="#DejaVuSans-46"/>
       <use x="95.410156" xlink:href="#DejaVuSans-54"/>
      </g>
     </g>
    </g>
   </g>
   <g id="line2d_19">
    <path clip-path="url(#pa8341b4302)" d="M 17.143904 116.754053 
L 19.791055 95.562513 
L 22.438205 77.526437 
L 23.761781 69.667658 
L 25.085356 62.562904 
L 26.408931 56.194848 
L 27.732507 50.543828 
L 29.056082 45.588003 
L 30.379657 41.303848 
L 31.703233 37.66628 
L 33.026808 34.648858 
L 34.350383 32.223815 
L 35.673959 30.362466 
L 36.997534 29.035589 
L 38.321109 28.213427 
L 39.644685 27.865795 
L 40.96826 27.96226 
L 42.291835 28.472108 
L 43.615411 29.364959 
L 44.938986 30.610797 
L 46.262561 32.179972 
L 47.586137 34.043276 
L 48.909712 36.171999 
L 51.556863 41.113727 
L 54.204014 46.79073 
L 56.851164 53.004104 
L 60.82189 62.932358 
L 68.763342 83.094106 
L 72.734068 92.519069 
L 75.381219 98.356632 
L 78.02837 103.76798 
L 80.67552 108.70979 
L 83.322671 113.152881 
L 85.969822 117.080718 
L 88.616973 120.489328 
L 91.264123 123.384518 
L 93.911274 125.780655 
L 96.558425 127.699216 
L 99.205575 129.167071 
L 101.852726 130.216357 
L 104.499877 130.882403 
L 107.147027 131.203773 
L 109.794178 131.219709 
L 112.441329 130.969414 
L 115.088479 130.491903 
L 117.73563 129.825561 
L 121.706356 128.553312 
L 127.000658 126.523109 
L 141.559986 120.619061 
L 146.854288 118.797041 
L 150.825014 117.629696 
L 154.79574 116.64888 
L 158.766466 115.857872 
L 162.737192 115.252045 
L 168.031493 114.712925 
L 173.325795 114.444197 
L 178.620096 114.397832 
L 185.237973 114.574922 
L 194.503 115.089806 
L 205.091603 115.802883 
L 205.091603 115.802883 
" style="fill:none;stroke:#cc1414;stroke-linecap:round;"/>
   </g>
   <g id="line2d_20">
    <path clip-path="url(#pa8341b4302)" d="M 39.659386 -1 
L 40.062957 0.186868 
L 41.972879 5.527144 
L 43.8828 10.604407 
L 45.792721 15.431611 
L 47.702642 20.02107 
L 49.612563 24.384495 
L 51.522484 28.533017 
L 53.432405 32.477221 
L 55.342327 36.227169 
L 57.252248 39.792429 
L 59.162169 43.182097 
L 61.07209 46.40482 
L 62.982011 49.468822 
L 64.891932 52.381919 
L 66.801853 55.151544 
L 68.711774 57.784762 
L 70.621696 60.288292 
L 72.531617 62.66852 
L 74.441538 64.931521 
L 76.351459 67.083066 
L 78.26138 69.128647 
L 80.171301 71.07348 
L 82.081222 72.922529 
L 83.991144 74.68051 
L 85.901065 76.35191 
L 87.810986 77.940991 
L 89.720907 79.451809 
L 91.630828 80.888218 
L 93.540749 82.253882 
L 95.45067 83.552287 
L 97.360591 84.786743 
L 99.270513 85.960402 
L 101.180434 87.076257 
L 103.090355 88.137155 
L 105.000276 89.145803 
L 106.910197 90.104774 
L 108.820118 91.016515 
L 110.730039 91.883352 
L 112.639961 92.707496 
L 114.549882 93.491051 
L 116.459803 94.236015 
L 118.369724 94.944288 
L 120.279645 95.617679 
L 122.189566 96.257905 
L 124.099487 96.866598 
L 126.009409 97.445314 
L 127.91933 97.995527 
L 129.829251 98.518641 
L 131.739172 99.015992 
L 133.649093 99.488847 
L 135.559014 99.938415 
L 137.468935 100.36584 
L 139.378856 100.772215 
L 141.288778 101.158575 
L 143.198699 101.525906 
L 145.10862 101.875147 
L 147.018541 102.207186 
L 148.928462 102.522873 
L 150.838383 102.823012 
L 152.748304 103.108368 
L 154.658226 103.379671 
L 156.568147 103.637612 
L 158.478068 103.882848 
L 160.387989 104.116007 
L 162.29791 104.337683 
L 164.207831 104.54844 
L 166.117752 104.748818 
L 168.027673 104.939327 
L 169.937595 105.120453 
L 171.847516 105.292659 
L 173.757437 105.456383 
L 175.667358 105.612044 
L 177.577279 105.760039 
L 179.4872 105.900744 
L 181.397121 106.03452 
L 183.307043 106.161707 
L 185.216964 106.28263 
L 187.126885 106.397597 
L 189.036806 106.506902 
L 190.946727 106.610824 
L 192.856648 106.709628 
L 194.766569 106.803565 
L 196.67649 106.892876 
L 198.586412 106.977788 
L 200.496333 107.058518 
L 202.406254 107.135273 
L 204.316175 107.208247 
L 206.226096 107.277627 
" style="fill:none;stroke:#808080;stroke-dasharray:3.7,1.6;stroke-dashoffset:0;"/>
   </g>
   <g id="patch_3">
    <path d="M 17.143904 141.165354 
L 17.143904 2.834646 
" style="fill:none;stroke:#000000;stroke-linecap:square;stroke-linejoin:miter;"/>
   </g>
   <g id="patch_4">
    <path d="M 11.471438 116.754053 
L 211.898562 116.754053 
" style="fill:none;stroke:#000000;stroke-linecap:square;stroke-linejoin:miter;"/>
   </g>
  </g>
 </g>
 <defs>
  <clipPath id="pa8341b4302">
   <rect height="138.330709" width="200.427124" x="11.471438" y="2.834646"/>
  </clipPath>
 </defs>
</svg>
