<?xml version="1.0" encoding="utf-8" standalone="no"?>
<!DOCTYPE svg PUBLIC "-//W3C//DTD SVG 1.1//EN"
  "http://www.w3.org/Graphics/SVG/1.1/DTD/svg11.dtd">
<!-- Created with matplotlib (https://matplotlib.org/) -->
<svg height="144pt" version="1.1" viewBox="0 0 216 144" width="216pt" xmlns="http://www.w3.org/2000/svg" xmlns:xlink="http://www.w3.org/1999/xlink">
 <defs>
  <style type="text/css">
*{stroke-linecap:butt;stroke-linejoin:round;}
  </style>
 </defs>
 <g id="figure_1">
  <g id="patch_1">
   <path d="M 0 144 
L 216 144 
L 216 0 
L 0 0 
z
" style="fill:#ffffff;"/>
  </g>
  <g id="axes_1">
   <g id="patch_2">
    <path d="M 14.351438 141.165354 
L 213.165354 141.165354 
L 213.165354 2.834646 
L 14.351438 2.834646 
z
" style="fill:#ffffff;"/>
   </g>
   <g id="matplotlib.axis_1">
    <g id="xtick_1">
     <g id="line2d_1">
      <path clip-path="url(#pfac8a30819)" d="M 19.978247 141.165354 
L 19.978247 2.834646 
" style="fill:none;stroke:#000000;stroke-linecap:square;stroke-opacity:0.1;stroke-width:0.5;"/>
     </g>
     <g id="line2d_2">
      <defs>
       <path d="M 0 0 
L 0 -3.5 
" id="md2f50959aa" style="stroke:#000000;stroke-width:0.8;"/>
      </defs>
      <g>
       <use style="stroke:#000000;stroke-width:0.8;" x="19.978247" xlink:href="#md2f50959aa" y="84.205651"/>
      </g>
     </g>
    </g>
    <g id="xtick_2">
     <g id="line2d_3">
      <path clip-path="url(#pfac8a30819)" d="M 66.868322 141.165354 
L 66.868322 2.834646 
" style="fill:none;stroke:#000000;stroke-linecap:square;stroke-opacity:0.1;stroke-width:0.5;"/>
     </g>
     <g id="line2d_4">
      <g>
       <use style="stroke:#000000;stroke-width:0.8;" x="66.868322" xlink:href="#md2f50959aa" y="84.205651"/>
      </g>
     </g>
     <g id="text_1">
      <!-- 5 -->
      <defs>
       <path d="M 10.796875 72.90625 
L 49.515625 72.90625 
L 49.515625 64.59375 
L 19.828125 64.59375 
L 19.828125 46.734375 
Q 21.96875 47.46875 24.109375 47.828125 
Q 26.265625 48.1875 28.421875 48.1875 
Q 40.625 48.1875 47.75 41.5 
Q 54.890625 34.8125 54.890625 23.390625 
Q 54.890625 11.625 47.5625 5.09375 
Q 40.234375 -1.421875 26.90625 -1.421875 
Q 22.3125 -1.421875 17.546875 -0.640625 
Q 12.796875 0.140625 7.71875 1.703125 
L 7.71875 11.625 
Q 12.109375 9.234375 16.796875 8.0625 
Q 21.484375 6.890625 26.703125 6.890625 
Q 35.15625 6.890625 40.078125 11.328125 
Q 45.015625 15.765625 45.015625 23.390625 
Q 45.015625 31 40.078125 35.4375 
Q 35.15625 39.890625 26.703125 39.890625 
Q 22.75 39.890625 18.8125 39.015625 
Q 14.890625 38.140625 10.796875 36.28125 
z
" id="DejaVuSans-53"/>
      </defs>
      <g transform="translate(64.323322 93.784401)scale(0.08 -0.08)">
       <use xlink:href="#DejaVuSans-53"/>
      </g>
     </g>
    </g>
    <g id="xtick_3">
     <g id="line2d_5">
      <path clip-path="url(#pfac8a30819)" d="M 113.758396 141.165354 
L 113.758396 2.834646 
" style="fill:none;stroke:#000000;stroke-linecap:square;stroke-opacity:0.1;stroke-width:0.5;"/>
     </g>
     <g id="line2d_6">
      <g>
       <use style="stroke:#000000;stroke-width:0.8;" x="113.758396" xlink:href="#md2f50959aa" y="84.205651"/>
      </g>
     </g>
     <g id="text_2">
      <!-- 10 -->
      <defs>
       <path d="M 12.40625 8.296875 
L 28.515625 8.296875 
L 28.515625 63.921875 
L 10.984375 60.40625 
L 10.984375 69.390625 
L 28.421875 72.90625 
L 38.28125 72.90625 
L 38.28125 8.296875 
L 54.390625 8.296875 
L 54.390625 0 
L 12.40625 0 
z
" id="DejaVuSans-49"/>
       <path d="M 31.78125 66.40625 
Q 24.171875 66.40625 20.328125 58.90625 
Q 16.5 51.421875 16.5 36.375 
Q 16.5 21.390625 20.328125 13.890625 
Q 24.171875 6.390625 31.78125 6.390625 
Q 39.453125 6.390625 43.28125 13.890625 
Q 47.125 21.390625 47.125 36.375 
Q 47.125 51.421875 43.28125 58.90625 
Q 39.453125 66.40625 31.78125 66.40625 
z
M 31.78125 74.21875 
Q 44.046875 74.21875 50.515625 64.515625 
Q 56.984375 54.828125 56.984375 36.375 
Q 56.984375 17.96875 50.515625 8.265625 
Q 44.046875 -1.421875 31.78125 -1.421875 
Q 19.53125 -1.421875 13.0625 8.265625 
Q 6.59375 17.96875 6.59375 36.375 
Q 6.59375 54.828125 13.0625 64.515625 
Q 19.53125 74.21875 31.78125 74.21875 
z
" id="DejaVuSans-48"/>
      </defs>
      <g transform="translate(108.668396 93.784401)scale(0.08 -0.08)">
       <use xlink:href="#DejaVuSans-49"/>
       <use x="63.623047" xlink:href="#DejaVuSans-48"/>
      </g>
     </g>
    </g>
    <g id="xtick_4">
     <g id="line2d_7">
      <path clip-path="url(#pfac8a30819)" d="M 160.648471 141.165354 
L 160.648471 2.834646 
" style="fill:none;stroke:#000000;stroke-linecap:square;stroke-opacity:0.1;stroke-width:0.5;"/>
     </g>
     <g id="line2d_8">
      <g>
       <use style="stroke:#000000;stroke-width:0.8;" x="160.648471" xlink:href="#md2f50959aa" y="84.205651"/>
      </g>
     </g>
     <g id="text_3">
      <!-- 15 -->
      <g transform="translate(155.558471 93.784401)scale(0.08 -0.08)">
       <use xlink:href="#DejaVuSans-49"/>
       <use x="63.623047" xlink:href="#DejaVuSans-53"/>
      </g>
     </g>
    </g>
    <g id="xtick_5">
     <g id="line2d_9">
      <path clip-path="url(#pfac8a30819)" d="M 207.538545 141.165354 
L 207.538545 2.834646 
" style="fill:none;stroke:#000000;stroke-linecap:square;stroke-opacity:0.1;stroke-width:0.5;"/>
     </g>
     <g id="line2d_10">
      <g>
       <use style="stroke:#000000;stroke-width:0.8;" x="207.538545" xlink:href="#md2f50959aa" y="84.205651"/>
      </g>
     </g>
     <g id="text_4">
      <!-- 20 -->
      <defs>
       <path d="M 19.1875 8.296875 
L 53.609375 8.296875 
L 53.609375 0 
L 7.328125 0 
L 7.328125 8.296875 
Q 12.9375 14.109375 22.625 23.890625 
Q 32.328125 33.6875 34.8125 36.53125 
Q 39.546875 41.84375 41.421875 45.53125 
Q 43.3125 49.21875 43.3125 52.78125 
Q 43.3125 58.59375 39.234375 62.25 
Q 35.15625 65.921875 28.609375 65.921875 
Q 23.96875 65.921875 18.8125 64.3125 
Q 13.671875 62.703125 7.8125 59.421875 
L 7.8125 69.390625 
Q 13.765625 71.78125 18.9375 73 
Q 24.125 74.21875 28.421875 74.21875 
Q 39.75 74.21875 46.484375 68.546875 
Q 53.21875 62.890625 53.21875 53.421875 
Q 53.21875 48.921875 51.53125 44.890625 
Q 49.859375 40.875 45.40625 35.40625 
Q 44.1875 33.984375 37.640625 27.21875 
Q 31.109375 20.453125 19.1875 8.296875 
z
" id="DejaVuSans-50"/>
      </defs>
      <g transform="translate(202.448545 93.784401)scale(0.08 -0.08)">
       <use xlink:href="#DejaVuSans-50"/>
       <use x="63.623047" xlink:href="#DejaVuSans-48"/>
      </g>
     </g>
    </g>
   </g>
   <g id="matplotlib.axis_2">
    <g id="ytick_1">
     <g id="line2d_11">
      <path clip-path="url(#pfac8a30819)" d="M 14.351438 116.754053 
L 213.165354 116.754053 
" style="fill:none;stroke:#000000;stroke-linecap:square;stroke-opacity:0.1;stroke-width:0.5;"/>
     </g>
     <g id="line2d_12">
      <defs>
       <path d="M 0 0 
L 3.5 0 
" id="mf557557556" style="stroke:#000000;stroke-width:0.8;"/>
      </defs>
      <g>
       <use style="stroke:#000000;stroke-width:0.8;" x="19.978247" xlink:href="#mf557557556" y="116.754053"/>
      </g>
     </g>
     <g id="text_5">
      <!-- -0.2 -->
      <defs>
       <path d="M 4.890625 31.390625 
L 31.203125 31.390625 
L 31.203125 23.390625 
L 4.890625 23.390625 
z
" id="DejaVuSans-45"/>
       <path d="M 10.6875 12.40625 
L 21 12.40625 
L 21 0 
L 10.6875 0 
z
" id="DejaVuSans-46"/>
      </defs>
      <g transform="translate(0.869497 119.793428)scale(0.08 -0.08)">
       <use xlink:href="#DejaVuSans-45"/>
       <use x="36.083984" xlink:href="#DejaVuSans-48"/>
       <use x="99.707031" xlink:href="#DejaVuSans-46"/>
       <use x="131.494141" xlink:href="#DejaVuSans-50"/>
      </g>
     </g>
    </g>
    <g id="ytick_2">
     <g id="line2d_13">
      <path clip-path="url(#pfac8a30819)" d="M 14.351438 84.205651 
L 213.165354 84.205651 
" style="fill:none;stroke:#000000;stroke-linecap:square;stroke-opacity:0.1;stroke-width:0.5;"/>
     </g>
     <g id="line2d_14">
      <g>
       <use style="stroke:#000000;stroke-width:0.8;" x="19.978247" xlink:href="#mf557557556" y="84.205651"/>
      </g>
     </g>
    </g>
    <g id="ytick_3">
     <g id="line2d_15">
      <path clip-path="url(#pfac8a30819)" d="M 14.351438 51.657249 
L 213.165354 51.657249 
" style="fill:none;stroke:#000000;stroke-linecap:square;stroke-opacity:0.1;stroke-width:0.5;"/>
     </g>
     <g id="line2d_16">
      <g>
       <use style="stroke:#000000;stroke-width:0.8;" x="19.978247" xlink:href="#mf557557556" y="51.657249"/>
      </g>
     </g>
     <g id="text_6">
      <!-- 0.2 -->
      <g transform="translate(3.755747 54.696624)scale(0.08 -0.08)">
       <use xlink:href="#DejaVuSans-48"/>
       <use x="63.623047" xlink:href="#DejaVuSans-46"/>
       <use x="95.410156" xlink:href="#DejaVuSans-50"/>
      </g>
     </g>
    </g>
    <g id="ytick_4">
     <g id="line2d_17">
      <path clip-path="url(#pfac8a30819)" d="M 14.351438 19.108847 
L 213.165354 19.108847 
" style="fill:none;stroke:#000000;stroke-linecap:square;stroke-opacity:0.1;stroke-width:0.5;"/>
     </g>
     <g id="line2d_18">
      <g>
       <use style="stroke:#000000;stroke-width:0.8;" x="19.978247" xlink:href="#mf557557556" y="19.108847"/>
      </g>
     </g>
     <g id="text_7">
      <!-- 0.4 -->
      <defs>
       <path d="M 37.796875 64.3125 
L 12.890625 25.390625 
L 37.796875 25.390625 
z
M 35.203125 72.90625 
L 47.609375 72.90625 
L 47.609375 25.390625 
L 58.015625 25.390625 
L 58.015625 17.1875 
L 47.609375 17.1875 
L 47.609375 0 
L 37.796875 0 
L 37.796875 17.1875 
L 4.890625 17.1875 
L 4.890625 26.703125 
z
" id="DejaVuSans-52"/>
      </defs>
      <g transform="translate(3.755747 22.148222)scale(0.08 -0.08)">
       <use xlink:href="#DejaVuSans-48"/>
       <use x="63.623047" xlink:href="#DejaVuSans-46"/>
       <use x="95.410156" xlink:href="#DejaVuSans-52"/>
      </g>
     </g>
    </g>
   </g>
   <g id="line2d_19">
    <path clip-path="url(#pfac8a30819)" d="M 19.978247 84.205651 
L 22.604091 66.618149 
L 24.573474 54.545529 
L 26.542858 43.736312 
L 28.512241 34.418032 
L 29.825163 29.12489 
L 31.138085 24.615949 
L 32.451007 20.921964 
L 33.763929 18.063247 
L 35.076851 16.049651 
L 35.733312 15.360154 
L 36.389773 14.881184 
L 37.046234 14.611244 
L 37.702695 14.548236 
L 38.359156 14.689472 
L 39.015617 15.031666 
L 39.672078 15.570952 
L 40.328539 16.303054 
L 41.641462 18.325914 
L 42.954384 21.056165 
L 44.267306 24.442848 
L 45.580228 28.428413 
L 47.549611 35.391053 
L 49.518994 43.329093 
L 52.144838 55.006341 
L 61.335293 97.474707 
L 63.304676 105.347801 
L 65.274059 112.349807 
L 67.243442 118.336859 
L 68.556364 121.707582 
L 69.869286 124.550557 
L 71.182209 126.846935 
L 72.495131 128.585176 
L 73.808053 129.761046 
L 74.464514 130.138769 
L 75.120975 130.377428 
L 75.777436 130.478137 
L 76.433897 130.442501 
L 77.090358 130.27247 
L 77.746819 129.970338 
L 79.059741 128.980691 
L 80.372663 127.498846 
L 81.685585 125.555631 
L 82.998507 123.187388 
L 84.311429 120.433401 
L 86.280813 115.672647 
L 88.250196 110.294265 
L 90.87604 102.445653 
L 99.410033 76.177049 
L 101.379417 70.873385 
L 103.3488 66.131832 
L 105.318183 62.053414 
L 106.631105 59.742561 
L 107.944027 57.779092 
L 109.256949 56.175621 
L 110.569871 54.940149 
L 111.882793 54.077295 
L 113.195715 53.587518 
L 114.508637 53.466796 
L 115.82156 53.706631 
L 117.134482 54.294041 
L 118.447404 55.211569 
L 119.760326 56.438416 
L 121.073248 57.952868 
L 122.38617 59.729432 
L 124.355553 62.825017 
L 126.324936 66.347031 
L 128.95078 71.516629 
L 138.141235 90.238667 
L 140.110618 93.696783 
L 142.080001 96.76669 
L 144.049384 99.38459 
L 145.362306 100.854243 
L 146.675229 102.090714 
L 147.988151 103.086609 
L 149.301073 103.836754 
L 150.613995 104.338668 
L 151.926917 104.592929 
L 153.239839 104.603183 
L 154.552761 104.376137 
L 155.865683 103.921564 
L 157.178605 103.252034 
L 158.491527 102.38066 
L 160.460911 100.729611 
L 162.430294 98.718991 
L 164.399677 96.414977 
L 167.025521 93.012281 
L 176.872437 79.740336 
L 179.498281 76.795261 
L 181.467664 74.908874 
L 183.437047 73.341045 
L 185.40643 72.118472 
L 187.375813 71.257626 
L 188.688735 70.889041 
L 190.001657 70.685111 
L 191.31458 70.643927 
L 192.627502 70.761573 
L 194.596885 71.222346 
L 196.566268 71.998874 
L 198.535651 73.058595 
L 200.505034 74.36282 
L 203.130878 76.406848 
L 206.413184 79.291205 
L 207.069645 79.893571 
L 207.069645 79.893571 
" style="fill:none;stroke:#cc1414;stroke-linecap:round;"/>
   </g>
   <g id="line2d_20">
    <path clip-path="url(#pfac8a30819)" d="M 19.978247 6.089486 
L 21.872796 6.763468 
L 23.767344 7.43745 
L 25.661892 8.111432 
L 27.556441 8.785414 
L 29.450989 9.459396 
L 31.345538 10.133378 
L 33.240086 10.80736 
L 35.134635 11.481342 
L 37.029183 12.155324 
L 38.923732 12.829306 
L 40.81828 13.503289 
L 42.712829 14.177271 
L 44.607377 14.851253 
L 46.501926 15.525235 
L 48.396474 16.199217 
L 50.291023 16.873199 
L 52.185571 17.547181 
L 54.080119 18.221163 
L 55.974668 18.895145 
L 57.869216 19.569127 
L 59.763765 20.243109 
L 61.658313 20.917091 
L 63.552862 21.591073 
L 65.44741 22.265055 
L 67.341959 22.939037 
L 69.236507 23.613019 
L 71.131056 24.287002 
L 73.025604 24.960984 
L 74.920153 25.634966 
L 76.814701 26.308948 
L 78.70925 26.98293 
L 80.603798 27.656912 
L 82.498347 28.330894 
L 84.392895 29.004876 
L 86.287443 29.678858 
L 88.181992 30.35284 
L 90.07654 31.026822 
L 91.971089 31.700804 
L 93.865637 32.374786 
L 95.760186 33.048768 
L 97.654734 33.72275 
L 99.549283 34.396732 
L 101.443831 35.070715 
L 103.33838 35.744697 
L 105.232928 36.418679 
L 107.127477 37.092661 
L 109.022025 37.766643 
L 110.916574 38.440625 
L 112.811122 39.114607 
L 114.70567 39.788589 
L 116.600219 40.462571 
L 118.494767 41.136553 
L 120.389316 41.810535 
L 122.283864 42.484517 
L 124.178413 43.158499 
L 126.072961 43.832481 
L 127.96751 44.506463 
L 129.862058 45.180445 
L 131.756607 45.854428 
L 133.651155 46.52841 
L 135.545704 47.202392 
L 137.440252 47.876374 
L 139.334801 48.550356 
L 141.229349 49.224338 
L 143.123897 49.89832 
L 145.018446 50.572302 
L 146.912994 51.246284 
L 148.807543 51.920266 
L 150.702091 52.594248 
L 152.59664 53.26823 
L 154.491188 53.942212 
L 156.385737 54.616194 
L 158.280285 55.290176 
L 160.174834 55.964158 
L 162.069382 56.638141 
L 163.963931 57.312123 
L 165.858479 57.986105 
L 167.753028 58.660087 
L 169.647576 59.334069 
L 171.542124 60.008051 
L 173.436673 60.682033 
L 175.331221 61.356015 
L 177.22577 62.029997 
L 179.120318 62.703979 
L 181.014867 63.377961 
L 182.909415 64.051943 
L 184.803964 64.725925 
L 186.698512 65.399907 
L 188.593061 66.073889 
L 190.487609 66.747871 
L 192.382158 67.421854 
L 194.276706 68.095836 
L 196.171255 68.769818 
L 198.065803 69.4438 
L 199.960352 70.117782 
L 201.8549 70.791764 
L 203.749448 71.465746 
L 205.643997 72.139728 
L 207.538545 72.81371 
" style="fill:none;stroke:#808080;stroke-dasharray:3.7,1.6;stroke-dashoffset:0;"/>
   </g>
   <g id="patch_3">
    <path d="M 19.978247 141.165354 
L 19.978247 2.834646 
" style="fill:none;stroke:#000000;stroke-linecap:square;stroke-linejoin:miter;"/>
   </g>
   <g id="patch_4">
    <path d="M 14.351438 84.205651 
L 213.165354 84.205651 
" style="fill:none;stroke:#000000;stroke-linecap:square;stroke-linejoin:miter;"/>
   </g>
  </g>
 </g>
 <defs>
  <clipPath id="pfac8a30819">
   <rect height="138.330709" width="198.813916" x="14.351438" y="2.834646"/>
  </clipPath>
 </defs>
</svg>
