<?xml version="1.0" encoding="utf-8" standalone="no"?>
<!DOCTYPE svg PUBLIC "-//W3C//DTD SVG 1.1//EN"
  "http://www.w3.org/Graphics/SVG/1.1/DTD/svg11.dtd">
<!-- Created with matplotlib (https://matplotlib.org/) -->
<svg height="144pt" version="1.1" viewBox="0 0 216 144" width="216pt" xmlns="http://www.w3.org/2000/svg" xmlns:xlink="http://www.w3.org/1999/xlink">
 <defs>
  <style type="text/css">
*{stroke-linecap:butt;stroke-linejoin:round;}
  </style>
 </defs>
 <g id="figure_1">
  <g id="patch_1">
   <path d="M 0 144 
L 216 144 
L 216 0 
L 0 0 
z
" style="fill:#ffffff;"/>
  </g>
  <g id="axes_1">
   <g id="patch_2">
    <path d="M 11.381438 135.980826 
L 213.165354 135.980826 
L 213.165354 2.834646 
L 11.381438 2.834646 
z
" style="fill:#ffffff;"/>
   </g>
   <g id="matplotlib.axis_1">
    <g id="xtick_1">
     <g id="line2d_1">
      <path clip-path="url(#p11dbcf8622)" d="M 17.092304 135.980826 
L 17.092304 2.834646 
" style="fill:none;stroke:#000000;stroke-linecap:square;stroke-opacity:0.1;stroke-width:0.5;"/>
     </g>
     <g id="line2d_2">
      <defs>
       <path d="M 0 0 
L 0 -3.5 
" id="mf522be1473" style="stroke:#000000;stroke-width:0.8;"/>
      </defs>
      <g>
       <use style="stroke:#000000;stroke-width:0.8;" x="17.092304" xlink:href="#mf522be1473" y="132.212538"/>
      </g>
     </g>
    </g>
    <g id="xtick_2">
     <g id="line2d_3">
      <path clip-path="url(#p11dbcf8622)" d="M 64.802125 135.980826 
L 64.802125 2.834646 
" style="fill:none;stroke:#000000;stroke-linecap:square;stroke-opacity:0.1;stroke-width:0.5;"/>
     </g>
     <g id="line2d_4">
      <g>
       <use style="stroke:#000000;stroke-width:0.8;" x="64.802125" xlink:href="#mf522be1473" y="132.212538"/>
      </g>
     </g>
     <g id="text_1">
      <!-- 5 -->
      <defs>
       <path d="M 10.796875 72.90625 
L 49.515625 72.90625 
L 49.515625 64.59375 
L 19.828125 64.59375 
L 19.828125 46.734375 
Q 21.96875 47.46875 24.109375 47.828125 
Q 26.265625 48.1875 28.421875 48.1875 
Q 40.625 48.1875 47.75 41.5 
Q 54.890625 34.8125 54.890625 23.390625 
Q 54.890625 11.625 47.5625 5.09375 
Q 40.234375 -1.421875 26.90625 -1.421875 
Q 22.3125 -1.421875 17.546875 -0.640625 
Q 12.796875 0.140625 7.71875 1.703125 
L 7.71875 11.625 
Q 12.109375 9.234375 16.796875 8.0625 
Q 21.484375 6.890625 26.703125 6.890625 
Q 35.15625 6.890625 40.078125 11.328125 
Q 45.015625 15.765625 45.015625 23.390625 
Q 45.015625 31 40.078125 35.4375 
Q 35.15625 39.890625 26.703125 39.890625 
Q 22.75 39.890625 18.8125 39.015625 
Q 14.890625 38.140625 10.796875 36.28125 
z
" id="DejaVuSans-53"/>
      </defs>
      <g transform="translate(62.257125 141.791288)scale(0.08 -0.08)">
       <use xlink:href="#DejaVuSans-53"/>
      </g>
     </g>
    </g>
    <g id="xtick_3">
     <g id="line2d_5">
      <path clip-path="url(#p11dbcf8622)" d="M 112.511945 135.980826 
L 112.511945 2.834646 
" style="fill:none;stroke:#000000;stroke-linecap:square;stroke-opacity:0.1;stroke-width:0.5;"/>
     </g>
     <g id="line2d_6">
      <g>
       <use style="stroke:#000000;stroke-width:0.8;" x="112.511945" xlink:href="#mf522be1473" y="132.212538"/>
      </g>
     </g>
     <g id="text_2">
      <!-- 10 -->
      <defs>
       <path d="M 12.40625 8.296875 
L 28.515625 8.296875 
L 28.515625 63.921875 
L 10.984375 60.40625 
L 10.984375 69.390625 
L 28.421875 72.90625 
L 38.28125 72.90625 
L 38.28125 8.296875 
L 54.390625 8.296875 
L 54.390625 0 
L 12.40625 0 
z
" id="DejaVuSans-49"/>
       <path d="M 31.78125 66.40625 
Q 24.171875 66.40625 20.328125 58.90625 
Q 16.5 51.421875 16.5 36.375 
Q 16.5 21.390625 20.328125 13.890625 
Q 24.171875 6.390625 31.78125 6.390625 
Q 39.453125 6.390625 43.28125 13.890625 
Q 47.125 21.390625 47.125 36.375 
Q 47.125 51.421875 43.28125 58.90625 
Q 39.453125 66.40625 31.78125 66.40625 
z
M 31.78125 74.21875 
Q 44.046875 74.21875 50.515625 64.515625 
Q 56.984375 54.828125 56.984375 36.375 
Q 56.984375 17.96875 50.515625 8.265625 
Q 44.046875 -1.421875 31.78125 -1.421875 
Q 19.53125 -1.421875 13.0625 8.265625 
Q 6.59375 17.96875 6.59375 36.375 
Q 6.59375 54.828125 13.0625 64.515625 
Q 19.53125 74.21875 31.78125 74.21875 
z
" id="DejaVuSans-48"/>
      </defs>
      <g transform="translate(107.421945 141.791288)scale(0.08 -0.08)">
       <use xlink:href="#DejaVuSans-49"/>
       <use x="63.623047" xlink:href="#DejaVuSans-48"/>
      </g>
     </g>
    </g>
    <g id="xtick_4">
     <g id="line2d_7">
      <path clip-path="url(#p11dbcf8622)" d="M 160.221766 135.980826 
L 160.221766 2.834646 
" style="fill:none;stroke:#000000;stroke-linecap:square;stroke-opacity:0.1;stroke-width:0.5;"/>
     </g>
     <g id="line2d_8">
      <g>
       <use style="stroke:#000000;stroke-width:0.8;" x="160.221766" xlink:href="#mf522be1473" y="132.212538"/>
      </g>
     </g>
     <g id="text_3">
      <!-- 15 -->
      <g transform="translate(155.131766 141.791288)scale(0.08 -0.08)">
       <use xlink:href="#DejaVuSans-49"/>
       <use x="63.623047" xlink:href="#DejaVuSans-53"/>
      </g>
     </g>
    </g>
    <g id="xtick_5">
     <g id="line2d_9">
      <path clip-path="url(#p11dbcf8622)" d="M 207.931587 135.980826 
L 207.931587 2.834646 
" style="fill:none;stroke:#000000;stroke-linecap:square;stroke-opacity:0.1;stroke-width:0.5;"/>
     </g>
     <g id="line2d_10">
      <g>
       <use style="stroke:#000000;stroke-width:0.8;" x="207.931587" xlink:href="#mf522be1473" y="132.212538"/>
      </g>
     </g>
     <g id="text_4">
      <!-- 20 -->
      <defs>
       <path d="M 19.1875 8.296875 
L 53.609375 8.296875 
L 53.609375 0 
L 7.328125 0 
L 7.328125 8.296875 
Q 12.9375 14.109375 22.625 23.890625 
Q 32.328125 33.6875 34.8125 36.53125 
Q 39.546875 41.84375 41.421875 45.53125 
Q 43.3125 49.21875 43.3125 52.78125 
Q 43.3125 58.59375 39.234375 62.25 
Q 35.15625 65.921875 28.609375 65.921875 
Q 23.96875 65.921875 18.8125 64.3125 
Q 13.671875 62.703125 7.8125 59.421875 
L 7.8125 69.390625 
Q 13.765625 71.78125 18.9375 73 
Q 24.125 74.21875 28.421875 74.21875 
Q 39.75 74.21875 46.484375 68.546875 
Q 53.21875 62.890625 53.21875 53.421875 
Q 53.21875 48.921875 51.53125 44.890625 
Q 49.859375 40.875 45.40625 35.40625 
Q 44.1875 33.984375 37.640625 27.21875 
Q 31.109375 20.453125 19.1875 8.296875 
z
" id="DejaVuSans-50"/>
      </defs>
      <g transform="translate(202.841587 141.791288)scale(0.08 -0.08)">
       <use xlink:href="#DejaVuSans-50"/>
       <use x="63.623047" xlink:href="#DejaVuSans-48"/>
      </g>
     </g>
    </g>
   </g>
   <g id="matplotlib.axis_2">
    <g id="ytick_1">
     <g id="line2d_11">
      <path clip-path="url(#p11dbcf8622)" d="M 11.381438 132.212538 
L 213.165354 132.212538 
" style="fill:none;stroke:#000000;stroke-linecap:square;stroke-opacity:0.1;stroke-width:0.5;"/>
     </g>
     <g id="line2d_12">
      <defs>
       <path d="M 0 0 
L 3.5 0 
" id="m2ea38e6508" style="stroke:#000000;stroke-width:0.8;"/>
      </defs>
      <g>
       <use style="stroke:#000000;stroke-width:0.8;" x="17.092304" xlink:href="#m2ea38e6508" y="132.212538"/>
      </g>
     </g>
    </g>
    <g id="ytick_2">
     <g id="line2d_13">
      <path clip-path="url(#p11dbcf8622)" d="M 11.381438 96.315369 
L 213.165354 96.315369 
" style="fill:none;stroke:#000000;stroke-linecap:square;stroke-opacity:0.1;stroke-width:0.5;"/>
     </g>
     <g id="line2d_14">
      <g>
       <use style="stroke:#000000;stroke-width:0.8;" x="17.092304" xlink:href="#m2ea38e6508" y="96.315369"/>
      </g>
     </g>
     <g id="text_5">
      <!-- 0.5 -->
      <defs>
       <path d="M 10.6875 12.40625 
L 21 12.40625 
L 21 0 
L 10.6875 0 
z
" id="DejaVuSans-46"/>
      </defs>
      <g transform="translate(0.869804 99.354744)scale(0.08 -0.08)">
       <use xlink:href="#DejaVuSans-48"/>
       <use x="63.623047" xlink:href="#DejaVuSans-46"/>
       <use x="95.410156" xlink:href="#DejaVuSans-53"/>
      </g>
     </g>
    </g>
    <g id="ytick_3">
     <g id="line2d_15">
      <path clip-path="url(#p11dbcf8622)" d="M 11.381438 60.418201 
L 213.165354 60.418201 
" style="fill:none;stroke:#000000;stroke-linecap:square;stroke-opacity:0.1;stroke-width:0.5;"/>
     </g>
     <g id="line2d_16">
      <g>
       <use style="stroke:#000000;stroke-width:0.8;" x="17.092304" xlink:href="#m2ea38e6508" y="60.418201"/>
      </g>
     </g>
     <g id="text_6">
      <!-- 1.0 -->
      <g transform="translate(0.869804 63.457576)scale(0.08 -0.08)">
       <use xlink:href="#DejaVuSans-49"/>
       <use x="63.623047" xlink:href="#DejaVuSans-46"/>
       <use x="95.410156" xlink:href="#DejaVuSans-48"/>
      </g>
     </g>
    </g>
    <g id="ytick_4">
     <g id="line2d_17">
      <path clip-path="url(#p11dbcf8622)" d="M 11.381438 24.521032 
L 213.165354 24.521032 
" style="fill:none;stroke:#000000;stroke-linecap:square;stroke-opacity:0.1;stroke-width:0.5;"/>
     </g>
     <g id="line2d_18">
      <g>
       <use style="stroke:#000000;stroke-width:0.8;" x="17.092304" xlink:href="#m2ea38e6508" y="24.521032"/>
      </g>
     </g>
     <g id="text_7">
      <!-- 1.5 -->
      <g transform="translate(0.869804 27.560407)scale(0.08 -0.08)">
       <use xlink:href="#DejaVuSans-49"/>
       <use x="63.623047" xlink:href="#DejaVuSans-46"/>
       <use x="95.410156" xlink:href="#DejaVuSans-53"/>
      </g>
     </g>
    </g>
   </g>
   <g id="line2d_19">
    <path clip-path="url(#p11dbcf8622)" d="M 17.092304 132.212538 
L 17.760241 132.066576 
L 18.428179 131.631542 
L 19.096116 130.912553 
L 19.764054 129.915823 
L 20.431991 128.648616 
L 21.767866 125.336862 
L 23.103741 121.054848 
L 24.439616 115.893992 
L 25.775491 109.957764 
L 27.779304 99.850313 
L 30.451054 84.781587 
L 37.798366 42.037116 
L 39.802178 32.001942 
L 41.805991 23.33394 
L 43.141866 18.449314 
L 44.477741 14.354678 
L 45.813616 11.09728 
L 47.149491 8.709463 
L 47.817428 7.847974 
L 48.485366 7.209803 
L 49.153303 6.795063 
L 49.821241 6.602934 
L 50.489178 6.631659 
L 51.157116 6.878547 
L 51.825053 7.339969 
L 52.492991 8.011361 
L 53.160928 8.887322 
L 54.496803 11.229183 
L 55.832678 14.309854 
L 57.168553 18.063232 
L 58.504428 22.413474 
L 60.508241 29.871238 
L 63.179991 41.068984 
L 70.527303 73.217038 
L 72.531115 80.85033 
L 74.534928 87.486142 
L 75.870803 91.253867 
L 77.206678 94.438398 
L 78.542553 97.00001 
L 79.878428 98.911106 
L 80.546365 99.617402 
L 81.214303 100.156215 
L 81.88224 100.527505 
L 82.550178 100.731993 
L 83.218115 100.771093 
L 83.886053 100.64634 
L 84.55399 100.360006 
L 85.221928 99.915035 
L 85.889865 99.314944 
L 87.22574 97.666364 
L 88.561615 95.453945 
L 89.89749 92.726594 
L 91.233365 89.542188 
L 93.237178 84.044747 
L 95.24099 77.886698 
L 99.248615 64.566446 
L 102.588303 53.627933 
L 104.592115 47.623793 
L 106.595928 42.28681 
L 107.931803 39.184026 
L 109.267678 36.493605 
L 110.603552 34.24921 
L 111.939427 32.479063 
L 113.275302 31.202066 
L 114.611177 30.427794 
L 115.279115 30.229622 
L 115.947052 30.156496 
L 116.61499 30.20699 
L 117.282927 30.379094 
L 118.618802 31.078388 
L 119.954677 32.233621 
L 121.290552 33.816361 
L 122.626427 35.792135 
L 123.962302 38.12067 
L 125.966115 42.172531 
L 127.969927 46.740231 
L 131.309615 55.003729 
L 135.31724 64.933604 
L 137.98899 70.90766 
L 139.992802 74.787856 
L 141.328677 77.018075 
L 142.664552 78.928626 
L 144.000427 80.496738 
L 145.336302 81.705675 
L 146.672177 82.545316 
L 148.008052 83.009674 
L 149.343927 83.098528 
L 150.679802 82.818124 
L 152.015677 82.181168 
L 153.351552 81.206832 
L 154.687427 79.920749 
L 156.023302 78.351684 
L 158.027114 75.535302 
L 160.030927 72.271255 
L 162.702677 67.452045 
L 169.382052 55.131608 
L 171.385864 51.90177 
L 173.389677 49.089387 
L 174.725552 47.488508 
L 176.061427 46.13229 
L 177.397302 45.03841 
L 178.733177 44.219228 
L 180.069052 43.681791 
L 181.404927 43.427831 
L 182.740802 43.453766 
L 184.076677 43.750933 
L 185.412552 44.308881 
L 186.748427 45.113315 
L 188.084302 46.146162 
L 190.088114 48.076136 
L 192.091926 50.385477 
L 194.763676 53.883323 
L 203.446864 65.73917 
L 205.450676 67.998424 
L 207.454489 69.906993 
L 207.454489 69.906993 
" style="fill:none;stroke:#cc1414;stroke-linecap:round;"/>
   </g>
   <g id="line2d_20">
    <path clip-path="url(#p11dbcf8622)" d="M -1 60.418201 
L 217 60.418201 
" style="fill:none;stroke:#808080;stroke-dasharray:3.7,1.6;stroke-dashoffset:0;"/>
   </g>
   <g id="patch_3">
    <path d="M 17.092304 135.980826 
L 17.092304 2.834646 
" style="fill:none;stroke:#000000;stroke-linecap:square;stroke-linejoin:miter;"/>
   </g>
   <g id="patch_4">
    <path d="M 11.381438 132.212538 
L 213.165354 132.212538 
" style="fill:none;stroke:#000000;stroke-linecap:square;stroke-linejoin:miter;"/>
   </g>
  </g>
 </g>
 <defs>
  <clipPath id="p11dbcf8622">
   <rect height="133.14618" width="201.783916" x="11.381438" y="2.834646"/>
  </clipPath>
 </defs>
</svg>
