0
SECTION
2
HEADER
9
$ACADVER
1
AC1014
9
$HANDSEED
5
FFFF
0
ENDSEC
0
SECTION
2
TABLES
0
TABLE
2
VPORT
5
8
100
AcDbSymbolTable
0
ENDTAB
0
TABLE
2
LTYPE
5
5
100
AcDbSymbolTable
0
LTYPE
5
14
100
AcDbSymbolTableRecord
100
AcDbLinetypeTableRecord
2
BYBLOCK
70
0
0
LTYPE
5
15
100
AcDbSymbolTableRecord
100
AcDbLinetypeTableRecord
2
BYLAYER
70
0
0
ENDTAB
0
TABLE
2
LAYER
5
2
100
AcDbSymbolTable
70
2
0
LAYER
5
50
100
AcDbSymbolTableRecord
100
AcDbLayerTableRecord
2
0
70
0
6
CONTINUOUS
0
ENDTAB
0
TABLE
2
STYLE
5
3
100
AcDbSymbolTable
70
1
0
STYLE
5
11
100
AcDbSymbolTableRecord
100
AcDbTextStyleTableRecord
2
STANDARD
70
0
0
ENDTAB
0
TABLE
2
VIEW
5
6
100
AcDbSymbolTable
70
0
0
ENDTAB
0
TABLE
2
UCS
5
7
100
AcDbSymbolTable
70
0
0
ENDTAB
0
TABLE
2
APPID
5
9
100
AcDbSymbolTable
70
2
0
APPID
5
12
100
AcDbSymbolTableRecord
100
AcDbRegAppTableRecord
2
ACAD
70
0
0
ENDTAB
0
TABLE
2
DIMSTYLE
5
A
100
AcDbSymbolTable
70
1
0
ENDTAB
0
TABLE
2
BLOCK_RECORD
5
1
100
AcDbSymbolTable
70
1
0
BLOCK_RECORD
5
1F
100
AcDbSymbolTableRecord
100
AcDbBlockTableRecord
2
*MODEL_SPACE
0
BLOCK_RECORD
5
1B
100
AcDbSymbolTableRecord
100
AcDbBlockTableRecord
2
*PAPER_SPACE
0
ENDTAB
0
ENDSEC
0
SECTION
2
BLOCKS
0
BLOCK
5
20
100
AcDbEntity
100
AcDbBlockBegin
2
*MODEL_SPACE
0
ENDBLK
5
21
100
AcDbEntity
100
AcDbBlockEnd
0
BLOCK
5
1C
100
AcDbEntity
100
AcDbBlockBegin
2
*PAPER_SPACE
0
ENDBLK
5
1D
100
AcDbEntity
100
AcDbBlockEnd
0
ENDSEC
0
SECTION
2
ENTITIES
0
SPLINE
5
100
100
AcDbEntity
8
0
100
AcDbSpline
70
1064
71
3
72
507
73
503
74
501
42
0.000000001
43
0.0000000001
44
0.0000000001
40
0
40
0
40
0
40
0
40
0.0099622661911205647
40
0.018395723585152214
40
0.026491950594959082
40
0.035136036832705643
40
0.044988892813517478
40
0.056604213598324016
40
0.070523990804227832
40
0.087341142080299458
40
0.10774280065965108
40
0.13254670237646565
40
0.16273789179994985
40
0.19950984106138703
40
0.24431277098774179
40
0.2989116230444912
40
0.36545626929419339
40
0.44656696733941004
40
0.54543871547998901
40
0.66596906684767265
40
0.81291520896694403
40
0.99208787417552446
40
1.210592209277757
40
1.4771296121414519
40
1.8023806471185937
40
2.1994991119000455
40
2.6847641190847078
40
3.2784661705061806
40
4.0061549627866766
40
4.900470821475162
40
6.003956826963277
40
7.3735819235372677
40
9.0883526504135936
40
11.262666243507205
40
14.070545491563351
40
17.790356929032654
40
22.884821772559128
40
30.118664565024389
40
40.573030529823981
40
54.77007632051631
40
70.232180654774083
40
86.882844447396835
40
106.11045901338912
40
122.37346283853159
40
135.80657267274751
40
147.77715317643154
40
158.20475632408517
40
170.45611298525642
40
183.77107976080927
40
195.30509451757479
40
204.50129493214064
40
211.5383437923488
40
218.70124451426028
40
227.37489509967449
40
235.86918123978947
40
242.8421952812555
40
247.90483702083671
40
251.8929782464476
40
256.59778551359915
40
262.00507673704061
40
267.11609260958619
40
271.19883291772965
40
274.04640954625444
40
276.23547171255962
40
278.77657593368747
40
281.7693486895958
40
284.76483086079679
40
287.33294944081842
40
289.24355865321911
40
290.54225859605657
40
291.63732419595976
40
292.93564806643184
40
294.43864033791772
40
295.97050243697379
40
297.35579667042765
40
298.48094019482102
40
299.31416732418319
40
299.9197690252069
40
300.45284143162928
40
301.0425420038186
40
301.70685211244142
40
302.40569543932747
40
303.08937058868389
40
303.71860498026535
40
304.27139640757446
40
304.7440083328429
40
305.14877938937298
40
305.50869924183036
40
305.84835075208963
40
306.18509613126946
40
306.52628385449168
40
306.87193739181021
40
307.21861994157604
40
307.56219648810145
40
307.89928159621513
40
308.2277613549345
40
308.54677376425542
40
308.85642478384608
40
309.1574243411676
40
309.45075476124794
40
309.73742686795214
40
310.01833552393754
40
310.29419897823897
40
310.56555504624276
40
310.83278780111397
40
311.096165178891
40
311.35587579965647
40
311.61205970386038
40
311.86483185436759
40
312.11429946014056
40
312.36057507125469
40
312.60378758905244
40
312.84409323685276
40
313.08168843476767
40
313.31682653353465
40
313.54984055656018
40
313.78117448262515
40
314.01142612035756
40
314.24140515631984
40
314.47221025883204
40
314.70532875924454
40
314.94276086010689
40
315.18716706730845
40
315.44203283556254
40
315.71183995740176
40
316.00223330029257
40
316.32017719703634
40
316.67410766578928
40
317.07409912457706
40
317.5320701630904
40
318.06204886793648
40
318.68050561635152
40
319.40674146891098
40
320.26328780641677
40
321.27620905459929
40
322.47506430443462
40
323.89199647655494
40
325.55884929430965
40
327.50023224485926
40
329.71928233332915
40
332.17338144971058
40
334.74601388685829
40
337.25313266377032
40
339.58242330936616
40
341.98064153318319
40
344.89611806602846
40
348.3729120017158
40
352.08200889069701
40
355.64949788778802
40
358.82959574023249
40
361.51583943648114
40
363.69139528666352
40
365.38243307791532
40
366.63341343539264
40
367.50503833432225
40
368.09723995305416
40
368.58830013352315
40
369.15740766638277
40
369.85704723220994
40
370.66144110777356
40
371.52270023607809
40
372.39328018591613
40
373.2346937351532
40
374.0202365542724
40
374.73463480361647
40
375.37220516626667
40
375.93450387456119
40
376.42800858249399
40
376.86207665012819
40
377.24725353121642
40
377.59394640152527
40
377.91148640212504
40
378.20761005072563
40
378.48834572982986
40
378.75821261311393
40
379.02059103735274
40
379.27813684382909
40
379.53316294373076
40
379.78796056682495
40
380.0450615518468
40
380.30745240814309
40
380.5787488730345
40
380.86333443675449
40
381.16646363784901
40
381.49433321547104
40
381.85412945696839
40
382.25406312636738
40
382.70339939909849
40
383.21247773625242
40
383.79269642005409
40
384.4564081462874
40
385.21663220399432
40
386.08642666033364
40
387.07767081904308
40
388.19888451479238
40
389.45160122493803
40
390.82489140085318
40
392.2883805922782
40
393.78654990461837
40
395.24283968186808
40
396.59176982613798
40
397.85823182637989
40
399.21922310186307
40
400.8659649571531
40
402.82797778572706
40
404.9925244920575
40
407.19696186273734
40
409.29734362141744
40
411.19735713078103
40
412.84892217111951
40
414.24042908426532
40
415.38333356127544
40
416.30158719642708
40
417.02466482436836
40
417.58351340916079
40
418.00850095181448
40
418.32860446130758
40
418.57121489467113
40
418.76178816484151
40
418.92231838511685
40
419.06874754476581
40
419.20984267228425
40
419.34889794576458
40
419.48642982309491
40
419.62222727610424
40
419.75654383076642
40
419.89068431464557
40
420.02716269565462
40
420.16950600424445
40
420.32180598767712
40
420.48820840930074
40
420.67252329757969
40
420.87801620260427
40
421.107327071204
40
421.36243253524458
40
421.64458903620715
40
421.95422373013525
40
422.29076134322554
40
422.65239018610862
40
423.0357860383657
40
423.43583505158296
40
423.84543222368228
40
424.2554868224031
40
424.65534911577635
40
425.03399927992581
40
425.38252957074639
40
425.69861501074126
40
425.9928426366352
40
426.29190316791767
40
426.62895263434933
40
427.02717644448876
40
427.4935310951962
40
428.02155084436845
40
428.59611988926935
40
429.19781609212328
40
429.80643528585489
40
430.40357490684875
40
430.97424560248305
40
431.5076071812141
40
431.99702637584431
40
432.43969038385711
40
432.83598955971053
40
433.18883031200949
40
433.50297813097887
40
433.78447497049365
40
434.04013369709605
40
434.27709396363593
40
434.50243645827931
40
434.72288728391845
40
434.94466540966403
40
435.17350074296479
40
435.41479401090595
40
435.6738506119973
40
435.95612159674232
40
436.26740985856406
40
436.61402436685682
40
437.00287820617075
40
437.44152651557226
40
437.93813082276961
40
438.50131859891962
40
439.1398810055943
40
439.86221629726839
40
440.67538086891517
40
441.58356191971404
40
442.58576581282472
40
443.6726107100904
40
444.82251800442856
40
445.99868683132928
40
447.15056081073487
40
448.22748848794606
40
449.21576731165533
40
450.1919399834008
40
451.30587113841568
40
452.65609738399718
40
454.23082733587432
40
455.94360290831548
40
457.68448951934562
40
459.35599283482037
40
460.8895582192672
40
462.24750589166297
40
463.41747484184333
40
464.40478818169754
40
465.22556565876152
40
465.90151439871801
40
466.45636309424037
40
466.91356263045498
40
467.29484478048118
40
467.61933398753604
40
467.90306606135135
40
468.15890788534045
40
468.39689541345035
40
468.62489426667668
40
468.84936546613392
40
469.076014184261
40
469.31019917153947
40
469.55709811425515
40
469.82169853895243
40
470.10869860815023
40
470.42237337577154
40
470.76642087906436
40
471.14377251988066
40
471.55633987304373
40
472.00467154161811
40
472.48750563012601
40
473.00122807448719
40
473.53929298453352
40
474.09174257471534
40
474.64510064536978
40
475.18313053826523
40
475.68928122849502
40
476.15209519507647
40
476.57481679857693
40
476.98602161090918
40
477.43506556137163
40
477.96479251658349
40
478.59200427394273
40
479.30878836758734
40
480.09124551103798
40
480.90809353061059
40
481.72750951191085
40
482.52179848678043
40
483.2699043228273
40
483.95814032249666
40
484.57970416366203
40
485.13353019522754
40
485.62290139845044
40
486.05408252868187
40
486.43510056015873
40
486.77471189961602
40
487.0815616750242
40
487.36354654226938
40
487.6274082920317
40
487.87857569651561
40
488.12122947848587
40
488.35852109017753
40
488.59286297028245
40
488.82622745301325
40
489.06042262306221
40
489.29733808350721
40
489.53916601020501
40
489.78860508894081
40
490.04905130179071
40
490.32477442919424
40
490.62107654218244
40
490.94443131473224
40
491.30261015830445
40
491.70480867229628
40
492.16178910626263
40
492.68604818205091
40
493.29200442893335
40
493.99617443996766
40
494.81726711008127
40
495.77605313101066
40
496.89473385842348
40
498.19529303484552
40
499.69592121337354
40
501.4041054476852
40
503.30484708118161
40
505.34443215771148
40
507.41855040244417
40
509.39493991171872
40
511.228236788755
40
513.13514188551494
40
515.44390117552894
40
518.20798480701035
40
521.21654810981897
40
524.19439071353543
40
526.93092547722995
40
529.31169670282804
40
531.29842413009965
40
532.89845011164402
40
534.14155058961649
40
535.06733755953292
40
535.72164556319672
40
536.16133940788302
40
536.47017689577206
40
536.76138044823335
40
537.10826237567278
40
537.52091488629799
40
537.98317659166003
40
538.47297296980162
40
538.96955106877408
40
539.45610825093217
40
539.92056162472534
40
540.35541125220334
40
540.75714505585927
40
541.12544401973457
40
541.46234287633888
40
541.77143475175012
40
542.05716880661646
40
542.32427259654662
40
542.57732512816858
40
542.82049820275654
40
543.05746459102068
40
543.29144739397418
40
543.52536845477175
40
543.76205171250683
40
544.0044461705487
40
544.25584461678523
40
544.52008320161974
40
544.80171305154443
40
545.10614035126923
40
545.43973713606044
40
545.80993022618122
40
546.22527719677987
40
546.69553324433627
40
547.23170018257281
40
547.84602800747336
40
548.55190790550614
40
549.36354641612661
40
550.29523221295415
40
551.35988692298633
40
552.56643102363705
40
553.91536004935415
40
555.39207063818208
40
556.95860295425405
40
558.54805348574098
40
560.07407799464329
40
561.48009060017034
40
562.84014202016397
40
564.37911389432554
40
566.25822914174898
40
568.4433721886171
40
570.77742062053062
40
573.08286427674034
40
575.22221003297511
40
577.11473215955027
40
578.72835601626014
40
580.06402075068604
40
581.14162939757728
40
581.99027801787895
40
582.64246756565694
40
583.13120749384188
40
583.48905759030436
40
583.74848996383832
40
583.94274822281841
40
584.10436982323813
40
584.25822602462017
40
584.41612856294387
40
584.579979800356
40
584.74725474896513
40
584.91436485967211
40
585.07823384311234
40
585.23700273063514
40
585.39035444789943
40
585.53964221519959
40
585.68783126800145
40
585.83918930350615
40
585.998729634602
40
586.17157852088985
40
586.36249887124018
40
586.5756656138708
40
586.81462353007396
40
587.0823077959609
40
587.38103906885749
40
587.71244721330186
40
588.07730386653668
40
588.47525744309996
40
588.90447483748983
40
589.36121112179171
40
589.83936067555976
40
590.3301003162627
40
590.82182925655343
40
591.30075836340723
40
591.75272736308511
40
592.16715017196691
40
592.54411187125834
40
592.90329186328404
40
593.28414516391615
40
593.72667385302589
40
594.25188494980216
40
594.85931446876327
40
595.53314084851127
40
596.24910019276081
40
596.98031652106215
40
597.70164407145512
40
598.39240632404756
40
599.03766613069888
40
599.62835991433383
40
600.160699637981
40
600.63520430473568
40
601.05562369515019
40
601.05562369515019
40
601.05562369515019
40
601.05562369515019
10
0.25
20
0
30
0
10
0.23664563721324477
20
0.030520656796918757
30
3.0887700968271716e-06
10
0.21198627138542209
20
0.086878272152934699
30
8.7923078089554312e-06
10
0.19704758327554567
20
0.1748047548855888
30
6.6249848679530768e-05
10
0.20014324796171873
20
0.25909694759369778
30
0.00015297137522916497
10
0.21803716504369283
20
0.34620154163731481
30
0.00027708710063513838
10
0.24847613487642067
20
0.44194801284295032
30
0.00045307139928530852
10
0.29125535881779691
20
0.55192567669517734
30
0.0007067617463314724
10
0.34716685498014738
20
0.68157149050368382
30
0.0010768435877348379
10
0.41786360387079191
20
0.83668820119843057
30
0.0016209828383147219
10
0.50575365278094297
20
1.0238191306977527
30
0.0024246853434678598
10
0.614045371768841
20
1.250611921356519
30
0.0036148598317831365
10
0.74682891684326647
20
1.5261739194182078
30
0.0053799160499476929
10
0.9092134816296793
20
1.8614659319083549
30
0.0079996678451590645
10
1.1075109833718764
20
2.2697546846370336
30
0.011889755883147796
10
1.3494745350356541
20
2.7671487936219776
30
0.017667663474350552
10
1.6445987159239874
20
3.3732416636192357
30
0.026250825240205646
10
2.0044939920593459
20
4.1118886867006825
30
0.039002457811794344
10
2.4433514090475916
20
5.0121505629505316
30
0.057948378271530182
10
2.9785196726979768
20
6.1094410573294127
30
0.086099482981128114
10
3.6312247994007665
20
7.4469256817949763
30
0.12793163322112289
10
4.4274747061724717
20
9.0772282546835967
30
0.19010034340193932
10
5.3992101319637076
20
11.064515582940199
30
0.28250639851157022
10
6.5857942606384556
20
13.487047557771215
30
0.4198874491454177
10
8.0359854582069588
20
16.440301997905507
30
0.62420122247467624
10
9.810627254143272
20
20.04081226955179
30
0.92820732988954546
10
11.986447635270629
20
24.430892788856511
30
1.3808796133606596
10
14.661642789845772
20
29.784473287675993
30
2.0556484279708314
10
17.964436236370073
20
36.314310390438685
30
3.0630921637536441
10
22.066759754244842
20
44.280863186079898
30
4.5707830363569109
10
27.207004503005439
20
54.00299033329803
30
6.8349740242419141
10
33.729248056537926
20
65.869983526265486
30
10.252572795737398
10
42.153116892572541
20
80.351993858449973
30
15.449244632570505
10
53.301557557495514
20
97.998044333888501
30
23.434065957104373
10
68.538564741190342
20
119.38247797064489
30
35.87968524507167
10
90.20316651696389
20
144.88122076147226
30
55.627832560577239
10
122.32149733050804
20
173.83612763609159
30
87.533932150923462
10
171.13307996400223
20
202.25187598121462
30
139.17421532175044
10
242.66333559753818
20
215.76824896793684
30
218.73609716989517
10
328.97154347767093
20
192.38765255631046
30
320.22940595267357
10
404.62213465697903
20
66.94963796528755
30
429.21352478571907
10
306.33922003180351
20
-112.75365496405264
30
402.4132751326523
10
153.42026526008854
20
-170.51548389645703
30
332.10331828380356
10
-9.1870530911643744
20
-189.4890670889186
30
297.64746625300069
10
-148.09289389925263
20
-173.74863265665951
30
322.92518983760135
10
-250.63868410895964
20
-123.04985545551816
30
382.9115605702097
10
-269.81600544499145
20
7.3190072089384328
30
419.30366036709023
10
-172.55147940297218
20
96.067168094663558
30
384.82079157326393
10
-58.265533493990496
20
131.49963314718326
30
353.72146037780306
10
58.005879306526239
20
132.57474115814151
30
347.48973482064508
10
148.05873853881792
20
106.18690537648587
30
368.48609244509942
10
193.82770076446258
20
32.426433516447936
30
394.29199407930685
10
150.23342227302609
20
-43.607872540649296
30
385.62795941987929
10
78.334043066883027
20
-78.784374606883361
30
366.22628162477781
10
-2.0187790492878577
20
-91.852252753716783
30
354.72163828099337
10
-70.245399187672973
20
-82.536048425607689
30
355.90991855977614
10
-119.99800032089411
20
-52.665243070988808
30
366.04069376894586
10
-123.14791209591209
20
-0.00026795420704384121
30
368.86628796566538
10
-86.298756568755607
20
34.016746257066337
30
359.53036532398892
10
-40.095297875196366
20
52.613592691223225
30
349.72361479695309
10
8.9767560343576687
20
57.522133137680633
30
343.47738588990455
10
48.533347352849731
20
50.587014554302989
30
342.09455513937598
10
76.562446620499344
20
32.788147871423128
30
343.44060928633905
10
79.012101427712324
20
4.2563899296809637
30
341.6300549132327
10
60.158931972599802
20
-15.200970603593305
30
336.09950494436731
10
35.123540732046216
20
-27.301281670790736
30
329.98172912274043
10
7.2963203906790595
20
-32.789337561838025
30
324.56857106737408
10
-17.573868316637196
20
-31.803786655036639
30
320.80365246391773
10
-36.010555850182321
20
-26.23650401285607
30
318.34921240738322
10
-47.185422991993129
20
-15.45006393634627
30
315.75874680222552
10
-45.533313241784185
20
-2.4841596313014795
30
311.76502640021801
10
-36.206780153912099
20
6.256359275290226
30
307.5680521992478
10
-23.833971200588209
20
12.432908109316262
30
303.17451118376118
10
-10.040210657169865
20
15.836001163442827
30
298.88749645808389
10
2.9008210688425642
20
16.654899807603648
30
295.00040166301449
10
13.474638039520773
20
15.292929154479866
30
291.50518124927078
10
20.957917325767205
20
12.387975063932704
30
288.2322437997031
10
24.964726166173492
20
8.0296633991547051
30
284.56819738462525
10
24.551115703940415
20
3.3571078273904509
30
280.62553881193605
10
21.302763037897329
20
-0.2813195412440872
30
276.98196283222228
10
16.623965613860744
20
-3.0887714129013082
30
273.37268636126345
10
11.152728875420731
20
-5.0649720390327957
30
269.76161136373685
10
5.578627658527294
20
-6.2253381415023661
30
266.19515953438554
10
0.43245004518617292
20
-6.6544974977115068
30
262.70686631716461
10
-3.9192333477644867
20
-6.487615380941639
30
259.29545977046894
10
-7.2760898048684153
20
-5.8768016217262753
30
255.92992403755949
10
-9.5577857612998525
20
-4.9708963771759089
30
252.57016761328339
10
-10.772870323933986
20
-3.9188380847076698
30
249.21305414935665
10
-11.049481649926573
20
-2.8624246221057086
30
245.90233839899383
10
-10.611882351018703
20
-1.8963453873549374
30
242.66163799891865
10
-9.6826129865186008
20
-1.0627391060569789
30
239.47731054975978
10
-8.4444406938113588
20
-0.37594460152892872
30
236.33280830609908
10
-7.0456086359962287
20
0.16452793573391189
30
233.22086460786224
10
-5.60351807799531
20
0.56928311247969099
30
230.14054709693602
10
-4.2060221470672818
20
0.85556671169856902
30
227.09347394093066
10
-2.9134096083201855
20
1.0440533623956512
30
224.08178431495614
10
-1.7618176139499258
20
1.1561677575775435
30
221.10736875801675
10
-0.76758985735529028
20
1.2121458200639816
30
218.17163771452388
10
0.068039377887602753
20
1.2298310994439339
30
215.27545856133301
10
0.75444119585667058
20
1.2241001740627033
30
212.41915316440776
10
1.3076326475844982
20
1.2067707988899594
30
209.60255931918996
10
1.7470819916988933
20
1.1868372604572692
30
206.82515536476637
10
2.0933458331895247
20
1.1708897469465807
30
204.0862130280085
10
2.3664767003967131
20
1.1636048051322347
30
201.38493439540665
10
2.5850659084318073
20
1.1682315114388142
30
198.72054707245948
10
2.7657674366778586
20
1.1870316055239338
30
196.0923549108536
10
2.9231628000208731
20
1.2216561479678887
30
193.49975549516904
10
3.0698537352530231
20
1.2734564632240422
30
190.94223869833178
10
3.2166971113043825
20
1.3437356574160042
30
188.41937787294319
10
3.3731204252199261
20
1.4339512618732546
30
185.93082105242092
10
3.5474757807734743
20
1.5458812644065656
30
183.47628608433129
10
3.7474057078136553
20
1.6817660317342089
30
181.05556153270021
10
3.980206211623019
20
1.8444381349016215
30
178.66851426477697
10
4.2531815869140672
20
2.0374513222251314
30
176.31510464024154
10
4.5739924062905164
20
2.2652191898675635
30
173.99541090475796
10
4.9510032138522178
20
2.533173676301534
30
171.70966578456969
10
5.3936402566854627
20
2.8479534184664468
30
169.45831057746003
10
5.9127722949810293
20
3.2176321374639572
30
167.24207567148363
10
6.5211289553585594
20
3.6519971197282382
30
165.06210190261356
10
7.2337703579993198
20
4.1628865257839474
30
162.9201246372503
10
8.0686175145414101
20
4.7645902041633175
30
160.81875067618185
10
9.0470444743804901
20
5.4743105866600335
30
158.76186282110109
10
10.194523811345626
20
6.3126695584859167
30
156.75518091281097
10
11.54131897007912
20
7.3042418556685726
30
154.80698740506864
10
13.123248312402545
20
8.4781084685869281
30
152.92900582979675
10
14.982607805754309
20
9.8684558201160915
30
151.13744744352817
10
17.169388481481324
20
11.515263310759913
30
149.45435459886741
10
19.742897374188754
20
13.465066181343346
30
147.90952974211913
10
22.773790108369717
20
15.771638125791547
30
146.54343685974371
10
26.346438400391055
20
18.496256660440675
30
145.41145183103328
10
30.561545276188792
20
21.707018927522501
30
144.58980042664797
10
35.538929235047078
20
25.476396787395352
30
144.18353633176699
10
41.420306849791032
20
29.87572957528576
30
144.33692070381355
10
48.371576185736117
20
34.964523293560589
30
145.24637330230161
10
56.583320643264301
20
40.771157225869324
30
147.17542651268499
10
66.266534687913037
20
47.259874161627977
30
150.46919238096115
10
77.63704669415398
20
54.277265688383892
30
155.56155610217161
10
90.875236148347682
20
61.471311881734536
30
162.95986131501607
10
106.03757954738251
20
68.184620548532891
30
173.1775640911188
10
122.8842296506982
20
73.343526186971403
30
186.57113574862197
10
140.61546680537259
20
75.448259563635062
30
203.04479863201379
10
157.55249323272199
20
72.704852594005885
30
221.71704397645976
10
171.16541314827316
20
63.616777509917043
30
240.84823935972872
10
177.28741353390316
20
45.880443595976494
30
258.2586461824248
10
168.56366546775334
20
21.771834266277278
30
267.73570273449712
10
147.04303054851195
20
0.53355739701131333
30
267.51902497440972
10
117.96585207392522
20
-16.041017271266931
30
262.13132168396987
10
84.739242832059034
20
-27.558729405149585
30
254.40694947029795
10
51.332013125531489
20
-34.423141158959687
30
246.9128144270928
10
20.562191982594534
20
-37.708735749762212
30
241.06825454519694
10
-6.0038144128580999
20
-38.481258176843177
30
237.31428377241159
10
-27.780395023888467
20
-37.488102952067301
30
235.44726764850276
10
-44.712111718506051
20
-35.218364855801177
30
234.95920287408683
10
-57.057524375298328
20
-31.903325987231838
30
235.26275909783755
10
-65.197524725007767
20
-27.887247271156763
30
235.80224116702752
10
-69.792407184777772
20
-22.697701128637799
30
236.1798355963796
10
-69.649764042957528
20
-16.74407221689037
30
235.75241743753156
10
-66.114864985545438
20
-11.957169465095546
30
234.54826554398301
10
-60.821321036124814
20
-7.8475773650986795
30
232.77733495972109
10
-54.109869228388128
20
-4.3292369979958814
30
230.47527594534162
10
-46.613424018054566
20
-1.4607606360168577
30
227.78865354084644
10
-38.853291720514669
20
0.7612533184724164
30
224.86112738006716
10
-31.272389704600592
20
2.3937476377516127
30
221.81870735911301
10
-24.181992235156216
20
3.5286821162688877
30
218.75101567293524
10
-17.775627002468791
20
4.269704093595343
30
215.71386345938384
10
-12.145978259455967
20
4.7172392437767314
30
212.73602842439547
10
-7.3095517825112832
20
4.9600446227199848
30
209.82811301089907
10
-3.2299931230554368
20
5.0719600188953171
30
206.99031065549434
10
0.16207218283998584
20
5.111807822771631
30
204.21838366243526
10
2.9540687196934385
20
5.1249171497532009
30
201.50766146496611
10
5.2411813992639065
20
5.1452245176086731
30
198.85501206776394
10
7.1195460145675202
20
5.1974451084288429
30
196.25893162247712
10
8.6814464827640485
20
5.2992196811997729
30
193.7185945436284
10
10.011872726257467
20
5.4632309299281339
30
191.23309742132247
10
11.186626118907697
20
5.6991512070522283
30
188.80149126153199
10
12.272057289389299
20
6.0152544594971511
30
186.42331672149894
10
13.326015834989036
20
6.4196511134984355
30
184.09916855873286
10
14.399427243858598
20
6.9212143444416272
30
181.83111053724684
10
15.538071840224823
20
7.5302859212734905
30
179.62300640655099
10
16.78433898369012
20
8.2592207329274103
30
177.48088798133887
10
18.17885213244573
20
9.122796597647806
30
175.41343816844008
10
19.761929023461235
20
10.138499248049065
30
173.43260797339141
10
21.57489878024942
20
11.326694348775632
30
171.55435756226854
10
23.661349720890339
20
12.710703882108172
30
169.79954314676348
10
26.068391062617543
20
14.316778895150097
30
168.19506030777399
10
28.847946795783876
20
16.173877899045198
30
166.77543614929897
10
32.057989753411064
20
18.31303495904913
30
165.58505946410651
10
35.763533103982937
20
20.765972339994327
30
164.68114541812787
10
40.037137275077122
20
23.562485600375776
30
164.13740710409937
10
44.958597356915945
20
26.72596777419664
30
164.04826836269123
10
50.613259803833479
20
30.26621392458301
30
164.5332226030439
10
57.087998878365411
20
34.168385776752316
30
165.74047552826693
10
64.463186017049821
20
38.376847644814603
30
167.84813133068405
10
72.797923169816443
20
42.772819866760287
30
171.0597040903782
10
82.104496983614425
20
47.146097005470367
30
175.58863458548163
10
92.306768533351459
20
51.16454040729429
30
181.624092722721
10
103.17909177309306
20
54.352289274925525
30
189.2703897897114
10
114.26698416682966
20
56.097479630998706
30
198.4571227810946
10
124.82432655063441
20
55.718390727899063
30
208.8492145284815
10
133.77719319059
20
52.575967846170322
30
219.80277350064367
10
139.83859691612702
20
46.12755143924872
30
230.5430636251071
10
140.74768735322351
20
35.766880507215461
30
239.82914160777545
10
134.43524026695485
20
23.343415017904185
30
245.22036599326788
10
122.2676943048553
20
11.701114727873014
30
246.45661783184215
10
105.82857154506137
20
1.5783926262448449
30
244.78528554136943
10
86.588377252322886
20
-6.5002080092988601
30
241.1716792656826
10
66.3051915703671
20
-12.377914428458396
30
236.63024415736578
10
46.515588903380738
20
-16.259256321220175
30
231.94901932383988
10
28.31223560196814
20
-18.548490064735201
30
227.61909848533438
10
12.304142378966107
20
-19.67887955450065
30
223.85582143345039
10
-1.2849383730313024
20
-20.020468190092615
30
220.68999247107689
10
-12.489394772645863
20
-19.853585779246817
30
218.05378866335502
10
-21.492460281350336
20
-19.377405655554373
30
215.84124727079612
10
-28.549557343471889
20
-18.729334491217848
30
213.94271830916131
10
-33.940517275945766
20
-18.003438541757355
30
212.26108903227481
10
-37.942234831103043
20
-17.264099315678749
30
210.71690698235778
10
-40.812869268370555
20
-16.555171662100797
30
209.24720740062662
10
-42.780568125529037
20
-15.906793929987577
30
207.80229896794231
10
-44.03218327791167
20
-15.344441209795811
30
206.34926245672818
10
-44.726440927504932
20
-14.896402607922823
30
204.89084546571263
10
-45.028430096365568
20
-14.580857099303744
30
203.45124278882201
10
-45.094242439021173
20
-14.397980234517412
30
202.03770013240131
10
-45.043948791536351
20
-14.342781050020186
30
200.64516189215914
10
-44.967831636990084
20
-14.412253208753922
30
199.27261290934351
10
-44.937507853940524
20
-14.604919270913301
30
197.92525766329737
10
-45.011549412440402
20
-14.919980211083288
30
196.61299354877102
10
-45.238257441145834
20
-15.356652306644389
30
195.34982685770552
10
-45.656516642708993
20
-15.913202650876315
30
194.15386394757294
10
-46.295547671829979
20
-16.586138400711839
30
193.04611053463475
10
-47.175635276264025
20
-17.370570731523415
30
192.0479799053544
10
-48.310773961953927
20
-18.261328347413805
30
191.17988372694657
10
-49.711348220906793
20
-19.253269935878439
30
190.46203667501899
10
-51.385156326211934
20
-20.340378037847046
30
189.91594963586951
10
-53.337018824136784
20
-21.514300711745541
30
189.5652060007528
10
-55.567711119324386
20
-22.762828035083096
30
189.4353646238132
10
-58.072514661808334
20
-24.068392768943973
30
189.55323382555861
10
-60.839366142580815
20
-25.406580741264435
30
189.94562096368156
10
-63.84652501963636
20
-26.744708527613632
30
190.63749652895197
10
-67.059745025180945
20
-28.040649338571797
30
191.64944963437796
10
-70.429061711900971
20
-29.242222813278637
30
192.99434716132154
10
-73.88550124930191
20
-30.287593808661519
30
194.67324396288353
10
-77.338279410930753
20
-31.107204925076974
30
196.67084520567133
10
-80.673444479079478
20
-31.627714965613961
30
198.95126497514087
10
-83.755120169857008
20
-31.77798348786115
30
201.45539835306016
10
-86.430866466154725
20
-31.496067376787988
30
204.10236669611726
10
-88.538590105110558
20
-30.733005583218855
30
206.79711616035402
10
-89.907426639415917
20
-29.447235197992299
30
209.44347174778704
10
-90.31133551286544
20
-27.600843835462442
30
211.9164505118849
10
-89.528806263910752
20
-25.28798802622979
30
213.97329952130667
10
-87.581522239769242
20
-22.747262203164588
30
215.4224680095499
10
-84.611211947877067
20
-20.135526007942531
30
216.2581788480316
10
-80.735180422076837
20
-17.551875439822005
30
216.50937086223453
10
-76.109257197162805
20
-15.099178389176615
30
216.21142103528996
10
-70.934173086490787
20
-12.867764343834375
30
215.42050123867415
10
-65.435562135974919
20
-10.922799867046608
30
214.21003246634424
10
-59.838318643586547
20
-9.2989928420647967
30
212.66127390913135
10
-54.345677339543542
20
-8.0032139366105461
30
210.85346267937842
10
-49.125529368621756
20
-7.0208833782559932
30
208.85702358674632
10
-44.30431283999372
20
-6.3236332076078829
30
206.73021958617497
10
-39.967158050896046
20
-5.8763729996902967
30
204.51862887241322
10
-36.162371257002007
20
-5.6428728621272617
30
202.25639825631885
10
-32.908334327847868
20
-5.5896325427939502
30
199.96833679468082
10
-30.201269766842458
20
-5.6882109469365503
30
197.67222090209196
10
-28.022780889046008
20
-5.9163468080713866
30
195.38102562129859
10
-26.346432327340132
20
-6.2581982098491009
30
193.10504698170405
10
-25.14282125629569
20
-6.7039609630110348
30
190.85390808655006
10
-24.382798506520189
20
-7.2491088047022014
30
188.63815415167096
10
-24.039124315844109
20
-7.8935878444256282
30
186.46983687987699
10
-24.08768286286665
20
-8.6413137978711987
30
184.36193871683622
10
-24.509247446411671
20
-9.5000257583529741
30
182.32759392790052
10
-25.291533152730707
20
-10.481201949168135
30
180.38026972696883
10
-26.430621007882664
20
-11.599780577552998
30
178.53500218310381
10
-27.931435618567988
20
-12.873689597587553
30
176.81001432809916
10
-29.807623767178381
20
-14.323277874332472
30
175.22826204646154
10
-32.081236090410499
20
-15.970639457505458
30
173.81891670894672
10
-34.782367713902843
20
-17.838692403623277
30
172.6189781757229
10
-37.948697978605558
20
-19.9497752706332
30
171.67516762066992
10
-41.624738140173001
20
-22.323441498447668
30
171.04612830788224
10
-45.860488352366957
20
-24.973041601440702
30
170.80481621018905
10
-50.709056972541184
20
-27.900581940696583
30
171.04076433778064
10
-56.222559437772865
20
-31.08926392291659
30
171.86159191357049
10
-62.445259529778511
20
-34.493117650358684
30
173.39262758298912
10
-69.402440143303977
20
-38.023411685689155
30
175.77276904005163
10
-77.082989279874994
20
-41.53236391154779
30
179.14373489208728
10
-85.413479874753733
20
-44.796483871055877
30
183.62901861667785
10
-94.222560006106235
20
-47.505407592022976
30
189.29889470968385
10
-103.19810115209862
20
-49.265763800068818
30
196.12153333335124
10
-111.84937655907808
20
-49.635859665883558
30
203.90830555688052
10
-119.49522801356558
20
-48.183780554938153
30
212.28875595770532
10
-125.3008477676145
20
-44.565451684844831
30
220.7439911586161
10
-128.17698656535222
20
-38.380759027883464
30
228.71901696582836
10
-126.40684505578976
20
-29.784079115135988
30
234.94152631440738
10
-119.68038833958518
20
-20.587833077226072
30
238.15305717235503
10
-109.14534609691879
20
-11.986150166369869
30
238.73853008695681
10
-95.65131678362863
20
-4.4049194110522354
30
237.31523169491061
10
-80.284264186091889
20
1.7768196942593617
30
234.48268022812891
10
-64.229104144507417
20
6.4442332740002879
30
230.85887599166384
10
-48.53357524729654
20
9.7046245766276513
30
226.95125636929669
10
-33.960939653045735
20
11.803638641923735
30
223.10260118877378
10
-20.964434554944273
20
13.025943994085047
30
219.49656221632449
10
-9.7337372926763628
20
13.634830776109384
30
216.20023311992003
10
-0.26781760794312826
20
13.845949378180006
30
213.21068634880632
10
7.5552242706447368
20
13.82367249350578
30
210.49132394782916
10
13.923116706562084
20
13.687762311471335
30
207.99506254070968
10
19.050776926477909
20
13.523017520560661
30
205.677003051751
10
23.155463536934668
20
13.388418246121031
30
203.50037064025005
10
26.442391733612183
20
13.324505858540952
30
201.43880842226523
10
29.097996552704657
20
13.358686145504123
30
199.4766745627748
10
31.288202907515767
20
13.508724131270888
30
197.60762199577277
10
33.158768655963655
20
13.785303302786913
30
195.83175283481802
10
34.835688012201167
20
14.194449765472504
30
194.1529669612822
10
36.425723028612907
20
14.739677218114986
30
192.57806156941081
10
38.017803660687079
20
15.423260917605127
30
191.11723534428637
10
39.685193607217244
20
16.246583767359933
30
189.7846563687462
10
41.48790777172006
20
17.21001233466415
30
188.59841770137703
10
43.475095496575875
20
18.312682218867398
30
187.58013690172118
10
45.687168052439247
20
19.552166198937723
30
186.75474648546995
10
48.157319275007978
20
20.923744704347101
30
186.15067186472032
10
50.912132260599286
20
22.419079946663874
30
185.80013251191414
10
53.971158207137648
20
24.024296164669288
30
185.73915233440994
10
57.345460480526818
20
25.717573934575164
30
186.00694609385786
10
61.035094314058327
20
27.466398411328239
30
186.64441592149046
10
65.02544646541574
20
29.224670198856764
30
187.69147460186704
10
69.282385023769393
20
30.930053437737485
30
189.18287860666848
10
73.746330687861885
20
32.502206648775896
30
191.14230381786783
10
78.325715774314503
20
33.842864437575322
30
193.57465042116081
10
82.8909328822985
20
34.839042284705599
30
196.45712053631186
10
87.270731181190357
20
35.370433237755392
30
199.73077062701077
10
91.254095546634261
20
35.321476285849997
30
203.2956280121748
10
94.599387647467836
20
34.593347137620768
30
207.01588867785233
10
97.045855031974241
20
33.109376710378662
30
210.73660072298313
10
98.282357292875204
20
30.788386785327123
30
214.29789695834472
10
97.883341629646097
20
27.651371530474989
30
217.38814727169438
10
95.690477044309318
20
24.058501617043063
30
219.60515853596971
10
91.93005951371245
20
20.36274855914932
30
220.87024529470116
10
86.813483923794834
20
16.734270489306745
30
221.26476142429692
10
80.579750012839853
20
13.333595135922884
30
220.86804125135848
10
73.546497492975959
20
10.298436191041684
30
219.79192037990427
10
66.070825654847965
20
7.7189014350960603
30
218.17114832663117
10
58.502046839644841
20
5.6292464387145467
30
216.14553428365201
10
51.143149733834136
20
4.0161076587158142
30
213.84138681360872
10
44.229231492217373
20
2.8333260860484577
30
211.36134389968583
10
37.921258082852162
20
2.0173650829058332
30
208.78166163653998
10
32.3112085063281
20
1.499773705802919
30
206.15471324075253
10
27.433742804417637
20
1.2156376326838838
30
203.5139000539769
10
23.28034812260821
20
1.1083337628109249
30
200.87901964962722
10
19.813157244932441
20
1.1314914391393167
30
198.26105115481886
10
16.976792537192345
20
1.2491223043206894
30
195.66600523265151
10
14.707448044547615
20
1.434721685747703
30
193.09776313473631
10
12.939126513346213
20
1.6699405611681968
30
190.55978863928715
10
11.607645735463086
20
1.9432269043627977
30
188.05560446080659
10
10.653432617515739
20
2.2486271276107139
30
185.5883384487023
10
10.023779756986976
20
2.5847691526768166
30
183.16013626895241
10
9.6745141080763233
20
2.9540003211988348
30
180.77209185720614
10
9.5707984653682701
20
3.3616954900664209
30
178.4246999898499
10
9.6871160044446665
20
3.8157747723490774
30
176.11846395578408
10
10.006781106678542
20
4.3264452293260298
30
173.85439938768144
10
10.521321287263987
20
4.9061469317562176
30
171.63440748966946
10
11.229935951671425
20
5.5696666197946065
30
169.46160873694151
10
12.139113471641238
20
6.3343774747583348
30
167.3407376504955
10
13.262419370294257
20
7.2205626007615562
30
165.2786657364766
10
14.620447723251269
20
8.2517830550245801
30
163.2850801547626
10
16.240946339317691
20
9.4552645694203079
30
161.37332269239585
10
18.159168980207976
20
10.862297604735405
30
159.56141672879249
10
20.418535473608447
20
12.508646885058752
30
157.87339664333089
10
23.071648732194959
20
14.434911588612053
30
156.34116811559193
10
26.181630881405408
20
16.68665624373417
30
155.00719103967467
10
29.82365758706689
20
19.313972792760477
30
153.92825549665335
10
34.0865243979787
20
22.369949239070557
30
153.18055936810967
10
39.074024232106993
20
25.907265866701078
30
152.86623271425029
10
44.905748466078393
20
29.97173842061504
30
153.1213279667115
10
51.716518858934883
20
34.591019008530822
30
154.12493043099931
10
59.652828300963783
20
39.755861252571336
30
156.10814357113648
10
68.863079495492528
20
45.390532427852285
30
159.35978978350892
10
79.475634218841833
20
51.308845912374821
30
164.22204381283933
10
91.554153891120436
20
57.154432110117213
30
171.06320605084909
10
105.01561501441579
20
62.333457715711759
30
180.20730837506949
10
119.49400058682903
20
65.964863861453878
30
191.79732918577969
10
134.17103752182288
20
66.922659438138155
30
205.59314439512579
10
147.60511537860555
20
63.976544306026511
30
220.78886877724568
10
157.85601870288619
20
56.133597933971785
30
236.09650262016501
10
161.68458947194537
20
41.925615931121662
30
249.84062101533101
10
154.33935640825271
20
23.387863449985964
30
257.71980577588482
10
137.4583273082234
20
6.483806654625262
30
258.58026893730153
10
114.39508875529984
20
-7.3971328120379027
30
255.17744967009972
10
87.592609336504097
20
-17.703966061117143
30
249.40688934593584
10
59.973496007663471
20
-24.470406351412027
30
243.09986886863527
10
33.835606513442201
20
-28.312794703243522
30
237.45705792512251
10
10.613253193595025
20
-30.007359331834714
30
233.03788865450662
10
-9.04528568373666
20
-30.215786016365179
30
229.9136757072263
10
-25.011965186414116
20
-29.407832621268838
30
227.89254763090327
10
-37.433859402378751
20
-27.886380163383674
30
226.67202006984257
10
-46.625890213237511
20
-25.873719495725886
30
225.94528945523285
10
-52.921867663454179
20
-23.492184420741957
30
225.41657725577289
10
-56.869743857173667
20
-20.867683965390338
30
224.88718570278832
10
-58.529793962412086
20
-17.663677460414867
30
224.01521657215511
10
-57.689120862083492
20
-14.657268972311471
30
222.7834777335363
10
-55.49664727040151
20
-12.257481660973994
30
221.37409732757018
10
-52.423803629048408
20
-10.137687711818074
30
219.70260468564578
10
-48.709789811598881
20
-8.3242100276632609
30
217.77979078847778
10
-44.641063103272202
20
-6.8194443498942983
30
215.64749255869918
10
-40.461132031262245
20
-5.6247397267842603
30
213.35763732897027
10
-36.370544535546145
20
-4.7186426147391796
30
210.95785010293869
10
-32.517547288015628
20
-4.069715027238658
30
208.48773616234092
10
-29.002869719239296
20
-3.6412793210238892
30
205.97771045881228
10
-25.886391573388707
20
-3.3968296887237082
30
203.4499534040599
10
-23.195788094410503
20
-3.3031484239034614
30
200.92011699823644
10
-20.935029253836177
20
-3.3321126991835399
30
198.39924835795316
10
-19.091949280096983
20
-3.4613881142078244
30
195.89553223942065
10
-17.644401803136081
20
-3.6744330409568948
30
193.41560821246333
10
-16.565008661456456
20
-3.9601291021511504
30
190.96531290771594
10
-15.824816763255951
20
-4.3122792079282934
30
188.5498951043478
10
-15.396216062255357
20
-4.7291065124077196
30
186.17399074808537
10
-15.255260018650528
20
-5.2128044132376719
30
183.84170847458853
10
-15.383350666324525
20
-5.7691550649885759
30
181.55699091761019
10
-15.768280834143656
20
-6.4072352399067709
30
179.32419364331275
10
-16.404757485907528
20
-7.1392256669255456
30
177.14875564886427
10
-17.294597632047029
20
-7.9803216600055924
30
175.0378938366913
10
-18.446767716768832
20
-8.9487223375437832
30
173.00132179438685
10
-19.87739206363841
20
-10.065666678471867
30
171.05202277784537
10
-21.609829896587293
20
-11.355486928221088
30
169.20712365767142
10
-23.674905687966202
20
-12.845646844751904
30
167.48895710056593
10
-26.111339874552382
20
-14.566698598853147
30
165.92646106059215
10
-28.966351950083475
20
-16.552014351425484
30
164.55710362935361
10
-32.296321056370815
20
-18.837037405611682
30
163.42950030978159
10
-36.167318239712564
20
-21.457667918158386
30
162.60681851997444
10
-40.655251652472408
20
-24.447239581612905
30
162.17096423118716
10
-45.845227901996786
20
-27.831326510547388
30
162.22739485850911
10
-51.829448533519447
20
-31.619328007820599
30
162.91010393186247
10
-58.702437416474552
20
-35.79145537350486
30
164.38571686019105
10
-66.551517539079512
20
-40.279548969852428
30
166.85451209574242
10
-75.439104455548943
20
-44.94051361759692
30
170.54428872771149
10
-85.371686763149796
20
-49.522893544861276
30
175.6903557240712
10
-96.248975640171167
20
-53.632065417957875
30
182.49192450137474
10
-107.78932158617103
20
-56.708117190445734
30
191.03641093264795
10
-119.43671043868252
20
-58.047351670513983
30
201.18983320226113
10
-130.29318289933056
20
-56.885129226682139
30
212.50433713473595
10
-139.10618938440976
20
-52.55883961834531
30
224.1890462305754
10
-144.30474558802882
20
-44.371688059691138
30
235.38424516490073
10
-142.9571705384223
20
-32.091505447899479
30
244.18441037985616
10
-133.88258944213837
20
-18.796079571997073
30
248.19801255173167
10
-119.19252526589972
20
-6.8804392245127151
30
248.1658515722666
10
-100.41686329709142
20
3.1195062026829867
30
245.39422687682497
10
-79.367975495972331
20
10.732762916033254
30
241.0090803844796
10
-57.921276351014122
20
15.992581242494284
30
236.07094444136479
10
-37.580342696693236
20
19.252166224879488
30
231.31882961942807
10
-19.303747169352675
20
20.996841475341515
30
227.14532804161706
10
-3.5515056661634761
20
21.678809282748812
30
223.67056316432343
10
9.5765596516832545
20
21.654202694313128
30
220.85305198770999
10
20.20138513728611
20
21.178885584566633
30
218.57696286506095
10
28.560085061242724
20
20.429407598529249
30
216.70670699870465
10
34.939025915163597
20
19.526740395616692
30
215.11490947042486
10
39.636427966202987
20
18.554795903951479
30
213.69431156833102
10
42.941259038993707
20
17.570484210985256
30
212.35689625748302
10
45.120513212903631
20
16.60947258223726
30
211.02919160815858
10
46.380201232150867
20
15.691050270437385
30
209.63716084855122
10
46.854882602765556
20
14.873070182634825
30
208.17812288412989
10
46.758452400924462
20
14.217729988372234
30
206.72105325303414
10
46.323709108237018
20
13.721185725962952
30
205.27044048310583
10
45.698627950848746
20
13.367709408938232
30
203.8030906962895
10
44.989830730132994
20
13.152310610223141
30
202.31452914785845
10
44.284372131003025
20
13.07260520096856
30
200.81093702738625
10
43.653868560769112
20
13.126439627341412
30
199.30310167342842
10
43.156650651021081
20
13.311622566512934
30
197.80340945582924
10
42.840162994617685
20
13.626498192605519
30
196.3253133386433
10
42.743425753363013
20
14.07012237606158
30
194.88428705181229
10
42.898197881858842
20
14.641499716678194
30
193.49949135364545
10
43.328143367117555
20
15.338318216761436
30
192.19392603752365
10
44.04833622492481
20
16.156903662337594
30
190.99169070032934
10
45.067902364665557
20
17.093718534501011
30
189.91528522010628
10
46.393956264066858
20
18.146281696645598
30
188.98614664034977
10
48.033511598372328
20
19.312353199312618
30
188.22701370390675
10
49.993187204968599
20
20.588216044245765
30
187.6635969635835
10
52.277961268597068
20
21.966846226416962
30
187.32504604466942
10
54.889555683655693
20
23.436083064435138
30
187.24362631008577
10
57.824422034911159
20
24.976687991304996
30
187.45384253373447
10
61.071135422803671
20
26.560248908777695
30
187.99094965341951
10
64.607035802287925
20
28.147036192290003
30
188.88863126006993
10
68.3940584492086
20
29.684093978073129
30
190.17558673917776
10
72.373864379098194
20
31.104061223933837
30
191.87083132288396
10
76.462668041976059
20
32.32544130902042
30
193.97772485314562
10
80.546602430553961
20
33.255221281388962
30
196.47715321106205
10
84.479110499454663
20
33.794621971864146
30
199.32109941403945
10
88.082357143337873
20
33.848222159042876
30
202.42874134585611
10
91.154731393099397
20
33.333785814997398
30
205.68972954706109
10
93.479890995969313
20
32.187174803834814
30
208.97605791754941
10
94.816121991321467
20
30.346484070291385
30
212.15952115341832
10
94.825440915954601
20
27.789483013934909
30
215.02480836622186
10
93.293740896445058
20
24.74716202842864
30
217.22405814285634
10
90.358596975821953
20
21.538831531977578
30
218.61142674120316
10
86.20290036557769
20
18.327179238228233
30
219.23491802105946
10
81.002733317567646
20
15.245510657787156
30
219.14705887389113
10
75.001200114120735
20
12.421012723003768
30
218.4226402486166
10
68.487396987931987
20
9.9496031104273701
30
217.16093784499148
10
61.761072831718451
20
7.8841492926363541
30
215.47438125331709
10
55.098036428589836
20
6.2357081311160965
30
213.47271767945372
10
48.726763231713655
20
4.9825628269619662
30
211.25240289045337
10
42.818936441680925
20
4.0828574048730877
30
208.88936524924247
10
37.483759536726538
20
3.4827679067305786
30
206.44472083450614
10
32.79090503324457
20
3.1340888051784099
30
203.94682720439693
10
28.727515278259016
20
2.970493908651946
30
201.4602600269032
10
26.361297246883456
20
2.9934878147758068
30
199.64059307083286
10
25.2496901397
20
3.0042899425300003
30
198.78574592900003
11
0.25
21
0
31
0
11
0.214126740634
21
0.092939677514199986
31
1.9294833114699998e-05
11
0.19981284277300002
21
0.17605062662400001
31
7.2471781106500001e-05
11
0.202229100322
21
0.25697679003000001
31
0.00015587007193000003
11
0.21858908845899999
21
0.34185528552400002
31
0.000276200418027
11
0.24758996603300001
21
0.43601895378700006
31
0.00044876071330299998
11
0.28905758995999997
21
0.54451753199399999
31
0.00069853321835499998
11
0.34373460278000001
21
0.67252655824500007
31
0.00106351753624
11
0.41317116666700004
21
0.82569291551500001
31
0.00160045368984
11
0.49969245221699998
21
1.01045277379
31
0.0023936723359100002
11
0.60642704118000001
21
1.2343494052400001
31
0.0035683986793600005
11
0.73738756513900006
21
1.5063734810599998
31
0.0053105867087100012
11
0.89760020868900003
21
1.8373460593399997
31
0.0078964177126500008
11
1.0932838831899998
21
2.2403639361700001
31
0.011736142678200001
11
1.3320834616499999
21
2.7313279884800004
31
0.017439234659799997
11
1.62336488802
21
3.3295773935599997
31
0.025911213359300002
11
1.9785836369800001
21
4.0586560985499993
31
0.038497557372900004
11
2.41174235625
21
4.9472426663999993
31
0.0571976481304
11
2.9399591864399999
21
6.0302807630900004
31
0.084982923077000005
11
3.58417616881
21
7.3503552714799998
31
0.126270212873
11
4.3700488886900004
21
8.95936859599
31
0.187626430914
11
5.3290767737899998
21
10.920583506299998
31
0.27881873884199998
11
6.50006306483
21
13.3111132506
31
0.41438186194600002
11
7.9310429880399997
21
16.224956994700001
31
0.615962291823
11
9.6819036242900012
21
19.776698896299997
31
0.91583560488500004
11
11.828067773299999
21
24.106011023399997
31
1.36220839913
11
14.465879095599998
21
29.383118694699995
31
2.0272637649899998
11
17.720804582299998
21
35.8153852035
31
3.0194862586199998
11
21.760447360099995
21
43.65510265719999
31
4.5027940432999998
11
26.815991484799998
21
53.208296818099996
31
6.7267750140300002
11
33.218767368099996
21
64.843464541499998
31
10.075599218600001
11
41.4644706399
21
78.996499161000003
31
15.149439301599998
11
52.328728179599999
21
96.160192859099993
31
22.904404605199996
11
67.078396801599993
21
116.823300684
31
34.900313813099999
11
87.856242834799986
21
141.25346244400001
31
53.745685224499994
11
118.33686203300002
21
168.80353986100002
31
83.866812225399997
11
164.53158566100001
21
195.79929838600003
31
132.55073857900001
11
233.86029056699999
21
209.71812737300002
31
209.55186615700001
11
322.72928829
21
178.67854050400001
31
315.82724528599999
11
376.266623557
21
64.275941286399998
31
405.00945241900001
11
303.40250744100001
21
-85.246480068799997
31
397.37226915500003
11
140.65365936500001
21
-166.29977841000002
31
334.81596277599999
11
-18.682233214
21
-183.76791081300001
31
307.330202316
11
-149.617048262
21
-165.82893937800003
31
331.39493780199996
11
-240.28604277100001
21
-105.84782477200001
31
381.50361055300004
11
-253.197010726
21
-5.7606779334899993
31
407.759289647
11
-173.20522389899998
21
84.576207320500004
31
386.54289959700003
11
-50.391047520100003
21
126.611935296
31
356.90323567600001
11
64.885711688099988
21
126.34734528200001
31
353.08899662900001
11
148.35696227400001
21
92.661448615399991
31
371.92568683400003
11
180.11291268899998
21
32.225362302599997
31
388.98572055400001
11
149.71355288000001
21
-32.500514035099997
31
384.84391772000004
11
76.167657179700001
21
-75.080304624199997
31
367.48926108799998
11
-7.0579974639399996
21
-88.033722961899997
31
356.48975812099997
11
-75.711958563799996
21
-75.971398726299995
31
358.34082310700006
11
-115.190078372
21
-45.099149375699994
31
365.51134713099998
11
-117.78320262500002
21
-5.3351338619800002
31
367.13178545900001
11
-87.211480767000012
21
29.715147458499999
31
360.034691399
11
-38.290493700699997
21
50.514176592499993
31
350.13432529200003
11
12.2172976669
21
55.276183140699999
31
343.92669855200006
11
52.082263500599993
21
46.566514086200002
31
342.58393780900002
11
74.158609842999994
21
28.583348154599996
31
342.91551099700001
11
76.097702640600005
21
6.8439647825299996
31
341.23074201599997
11
60.685103928199993
21
-12.778604742399999
31
336.42162230099996
11
34.657324519599996
21
-26.1348736771
31
330.11023132499997
11
5.7850836445199993
21
-31.816343384499998
31
324.50612991500003
11
-19.560985240099999
21
-30.4922545296
31
320.58861987600005
11
-37.286480194099994
21
-23.892565219399998
31
317.887937389
11
-45.569576740699993
21
-14.2310380616
31
315.29808049500002
11
-44.649170830399996
21
-3.8335580491499996
31
311.98716987100005
11
-36.418846455599997
21
5.3051226427200007
31
307.82654934499999
11
-23.718937522599997
21
11.9038343288
31
303.23657178600001
11
-9.5178681768400004
21
15.4924824198
31
298.752000082
11
3.7038101973799997
21
16.241370803000002
31
294.68624080699999
11
14.240232576499999
21
14.7049348212
31
291.05058915000001
11
21.194430316999998
21
11.610295644699999
31
287.66103356500003
11
24.380556928399997
21
7.71049467997
31
284.29718284300003
11
24.165190405399997
21
3.6791333437699998
31
280.816039053
11
21.278042399199997
21
0.036507734143500004
31
277.186943912
11
16.616976812000001
21
-2.8862813189300001
31
273.463697508
11
11.077657700299998
21
-4.9423063440900004
31
269.73182071100001
11
5.4322210278699998
21
-6.1332856934900004
31
266.06415333899997
11
0.26457811509000001
21
-6.5612475108900004
31
262.49961867600001
11
-4.0458204206100001
21
-6.3823086087199998
31
259.04327934899999
11
-7.3072513791499993
21
-5.7701632293100005
31
255.67808257500002
11
-9.4811296650100001
21
-4.8908157769800003
31
252.37884598500003
11
-10.640854500899998
21
-3.88717146284
31
249.12277989000003
11
-10.931387901900001
21
-2.8714023391100003
31
245.89475909200002
11
-10.533868264599999
21
-1.9231421210399999
31
242.68812133
11
-9.637490593199999
21
-1.0917784208399999
31
239.50280380800001
11
-8.4193863289499991
21
-0.40126822403100004
31
236.34257368100003
11
-7.03212172928
21
0.14390383178800001
31
233.21253160600003
11
-5.59767868547
21
0.55271309286900006
31
230.11741731500001
11
-4.2063930348700005
21
0.84225869945199994
31
227.060764801
11
-2.9192616902099999
21
1.03348354
31
224.044704266
11
-1.7721988813199998
21
1.14804982812
31
221.070143255
11
-0.781114983529
21
1.20628400661
31
218.13710099800002
11
0.052982929422499998
21
1.2260071646999999
31
215.24504895500002
11
0.73937177508800012
21
1.22203574126
31
212.39318498300003
11
1.2937370046200001
21
1.20614737967
31
209.58062095200003
11
1.7351284251099999
21
1.1873382504299999
31
206.80649277700002
11
2.0837194295599999
21
1.17223711342
31
204.070013139
11
2.3592752126600001
21
1.16557954591
31
201.37048794899999
11
2.5802052363200003
21
1.17067884416
31
198.707313443
11
2.76306961435
21
1.1898564662
31
196.079965512
11
2.9224187311799996
21
1.22481443366
31
193.48798818700001
11
3.0708631035200002
21
1.2769456066499998
31
190.93098488500002
11
3.2192911846200003
21
1.3475863128800001
31
188.40861397600003
11
3.3771732404999999
21
1.4382206526499999
31
185.92058919599998
11
3.5529077362599999
21
1.550648026
31
183.46668513600002
11
3.7541820059399997
21
1.6871259677899999
31
181.046748087
11
3.9883311669400001
21
1.8504999581399999
31
178.660712977
11
4.2626885109199995
21
2.0443310280200002
31
176.30862765300003
11
4.5849274059700003
21
2.2730310613800002
31
173.99068655400001
11
4.9633996040100001
21
2.5420149276399999
31
171.70727683000001
11
5.4074782826599996
21
2.8578780764599996
31
169.45904127000003
11
5.9279166316599996
21
3.2286080259900003
31
167.24696421499999
11
6.5372347157300004
21
3.6638382416100002
31
165.07248914499999
11
7.2501490300499993
21
4.1751531345699995
31
162.93768006800002
11
8.0840608612199993
21
4.7764531183600001
31
160.84544372599998
11
9.0596214644300002
21
5.4843885248299991
31
158.799836427
11
10.2013943
21
6.3188701610699995
31
156.80648884000001
11
11.538637221399998
21
7.3036614785199996
31
154.87319542899999
11
13.106230589699999
21
8.4670512107200011
31
153.010733708
11
14.945780731999999
21
9.8425933801699994
31
151.23400402300001
11
17.106931704600001
21
11.4698795481
31
149.563615341
11
19.648921325299998
21
13.3952690714
31
148.02808884400002
11
22.642418424899997
21
15.672435384799998
31
146.66691089599999
11
26.171673787900001
21
18.362471112000001
31
145.53473971600002
11
30.336999369499999
21
21.5331018551
31
144.707149087
11
35.257540698599996
21
25.256240358399999
31
144.288355964
11
41.074183513499996
21
29.602597968200001
31
144.42137192500002
11
47.952141168499992
21
34.631259872800001
31
145.300815371
11
56.0820894903
21
40.370911434599996
31
147.18795228600001
11
65.677190856099998
21
46.787722021
31
150.425847078
11
76.960059629499995
21
53.733010543599995
31
155.44874640199998
11
90.127055322199993
21
60.863031252199995
31
162.772192362
11
105.26523926200001
21
67.527635648399993
31
172.93660141100003
11
122.180415407
21
72.644452293100002
31
186.35723228000001
11
140.08699183200002
21
74.629516945599988
31
203.02079391500001
11
157.164562133
21
71.557271917699993
31
222.01452100500001
11
170.204019625
21
61.806617080300001
31
241.07919343100002
11
174.94797219800003
21
45.242898034399992
31
256.75393797499999
11
167.73964535299999
21
24.202560299399998
31
265.72551960800001
11
147.844961154
21
2.9205731846499998
31
266.85640705900005
11
118.279034248
21
-14.701421956199997
31
261.94408982900001
11
84.103279255399997
21
-26.926511907599998
31
254.308324016
11
49.968324082699993
21
-34.096167036399997
31
246.81842047000001
11
18.879348997699999
21
-37.445938066799997
31
241.025588924
11
-7.7202025564599994
21
-38.162792330499997
31
237.34584754100001
11
-29.3725831201
21
-37.057288041299998
31
235.541241789
11
-46.098687039400005
21
-34.609377351399999
31
235.087301177
11
-58.109501459299999
21
-31.123779479199996
31
235.38078017700002
11
-65.6990714752
21
-26.863890639599997
31
235.85487984100001
11
-69.241233855399997
21
-22.122153382299999
31
236.05309482000001
11
-69.219252077099995
21
-17.226116263000002
31
235.67580526
11
-66.238010772699994
21
-12.500584440899999
31
234.59419179899999
11
-60.996344977199996
21
-8.2162725055900001
31
232.82807653200001
11
-54.225279764199996
21
-4.5523065682299997
31
230.49720111799999
11
-46.615296634499998
21
-1.5858736658199999
31
227.76495639800001
11
-38.756630401699994
21
0.69353143911500004
31
224.79231072200002
11
-31.105857483299996
21
2.35676618361
31
221.71059042000002
11
-23.979385780099996
21
3.5063706699199999
31
218.61227431999998
11
-17.566589635099998
21
4.2537242828200004
31
215.55384432300002
11
-11.9533416207
21
4.7042096618199993
31
212.56417772200001
11
-7.1483755632999992
21
4.9494645479699999
31
209.65382809299999
11
-3.1077459781200001
21
5.0646716061999992
31
206.82279832199998
11
0.244866871598
21
5.1088966511500002
31
204.06607201
11
3.0025979113700001
21
5.1269933909000001
31
201.37707312700002
11
5.2642702433099995
21
5.1521265985999998
31
198.74956456999999
11
7.1269961995999997
21
5.2083721382699997
31
196.17852321499998
11
8.6817086031999988
21
5.3131178472999991
31
193.66042488400001
11
10.010877135800001
21
5.4791478400799996
31
191.19324082000003
11
11.187777265000001
21
5.7163819471900004
31
188.77633380199998
11
12.276806340499999
21
6.03328940935
31
186.410360623
11
13.334461827599998
21
6.4380188548600001
31
184.09723650399999
11
14.4107012257
21
6.9392949715899999
31
181.84018927900001
11
15.5504892063
21
7.5471317504500002
31
179.64391955900001
11
16.795405104
21
8.2734058513799997
31
177.51488175100002
11
18.185234657199999
21
9.1323231140899992
31
175.46170589500002
11
19.7595059125
21
10.1407969417
31
173.49578938100001
11
21.558952479399998
21
11.318738595999999
31
171.632099541
11
23.626899375499999
21
12.6892345535
31
169.890241992
11
26.010568160699997
21
14.278551766399998
31
168.29586439799999
11
28.762288085199998
21
16.115862990799997
31
166.88247893700003
11
31.9405754637
21
18.232514192099998
31
165.69379436000003
11
35.610997596499999
21
20.660554971699998
31
164.78664060300002
11
39.8466571501
21
23.430109769800001
31
164.234526754
11
44.727994161200002
21
26.564971913000001
31
164.131762799
11
50.341364101799996
21
30.075552770000002
31
164.59783737500001
11
56.775442469599994
21
33.948040706299999
31
165.78127919100001
11
64.113823731799997
21
38.128416335699995
31
167.86138968700001
11
72.421093697799989
21
42.500085566899998
31
171.04482683300003
11
81.718084097000002
21
46.854891062899995
31
175.55189392399998
11
91.940230248000006
21
50.860213277099994
31
181.584723908
11
102.872271591
21
54.031404635399994
31
189.26760150500002
11
114.056682907
21
55.730323961599993
31
198.552141234
11
124.68948399
21
55.225234038199993
31
209.09441585300002
11
133.55317718399999
21
51.852313469799995
31
220.14594702900001
11
139.08470714000001
21
45.286025915099998
31
230.55014317800001
11
139.68495748000001
21
35.829393678399995
31
238.95278598099998
11
134.25899546400001
21
24.521311683299999
31
244.23633999200001
11
122.739668847
21
12.882477565399999
31
245.973731273
11
106.226531608
21
2.3787890438199999
31
244.58151723900002
11
86.60642140600001
21
-6.0552075500299996
31
241.05373868800001
11
65.917856704499997
21
-12.152975483199999
31
236.49798090800002
11
45.841987319200001
21
-16.1414262198
31
231.785011317
11
27.493994386299999
21
-18.469863956499999
31
227.43361308000001
11
11.454909967999999
21
-19.606516197199998
31
223.66233995900001
11
-2.0910889106399999
21
-19.941482628899998
31
220.49644975199999
11
-13.211087082399999
21
-19.764972510699998
31
217.86252697500001
11
-22.110182445299998
21
-19.280566834199998
31
215.651096056
11
-29.056256646499996
21
-18.6276475811
31
213.75112888700002
11
-34.334923611699999
21
-17.901518603500001
31
212.06602181299999
11
-38.224711267599993
21
-17.1680867601
31
210.51906646000003
11
-40.984516446100002
21
-16.4735156727
31
209.05357266599998
11
-42.848009660000002
21
-15.8502577666
31
207.63057412000001
11
-44.021794568399997
21
-15.320811291199998
31
206.22567819900001
11
-44.685554342899998
21
-14.900181127599998
31
204.82586092899999
11
-44.993268116499998
21
-14.5976492461
31
203.42659806100002
11
-45.0750373033
21
-14.418178896600001
31
202.02949831699999
11
-45.039279418
21
-14.363596271699999
31
200.64047743200001
11
-44.975136936599995
21
-14.4335944157
31
199.26843962999999
11
-44.954980432000006
21
-14.626560078199999
31
197.92439618100002
11
-45.036897204699997
21
-14.940211721399999
31
196.62093694700002
11
-45.2670665355
21
-15.372039036399999
31
195.371971699
11
-45.681935876699995
21
-15.9195405223
31
194.19266664899999
11
-46.310128109299995
21
-16.580260477499998
31
193.09951276700002
11
-47.174025675899998
21
-17.351628188599999
31
192.11047214900003
11
-48.290990185300004
21
-18.230600407699999
31
191.24515445300003
11
-49.674184142900003
21
-19.213104810299999
31
190.52497574
11
-51.332964105899997
21
-20.293279236299998
31
189.973246055
11
-53.272812293699999
21
-21.462501993299998
31
189.61511954299999
11
-55.494768255000004
21
-22.708215989300001
31
189.47732213899999
11
-57.994316922300001
21
-24.012568590000001
31
189.58754852600003
11
-60.759689804299995
21
-25.3509254491
31
189.973395788
11
-63.769550928499996
21
-26.690376106199999
31
190.66068353899999
11
-66.990081512699987
21
-27.9884364011
31
191.67101231100003
11
-70.371565061200002
21
-29.192266924399995
31
193.01845397400001
11
-73.844728566299992
21
-30.2388550987
31
194.705377137
11
-77.3173329424
21
-31.056717221299998
31
196.71761587400002
11
-80.671824829999991
21
-31.569702172699998
31
199.01950814100002
11
-83.765215227199988
21
-31.703326633300001
31
201.54973851
11
-86.432613899000017
21
-31.393641043799999
31
204.21932159400001
11
-88.495805755399999
21
-30.597867224899996
31
206.91326289900002
11
-89.7776403851
21
-29.305061543499995
31
209.49716575900001
11
-90.121645924099994
21
-27.544171645300001
31
211.82909983600001
11
-89.414321495099998
21
-25.386598883699996
31
213.77545336699998
11
-87.605649150099993
21
-22.941237741800002
31
215.22774380499999
11
-84.722506743699995
21
-20.341977501899997
31
216.11631364800002
11
-80.870698282299998
21
-17.7301451493
31
216.41726108900002
11
-76.2242320772
21
-15.236171105899999
31
216.15093266900001
11
-71.004156650599995
21
-12.964917329299999
31
215.37300107900001
11
-65.452073461099999
21
-10.987564509699999
31
214.16127498099999
11
-59.804243298899998
21
-9.3405869592799995
31
212.60204064800001
11
-54.270980171899993
21
-8.0303135057599988
31
210.77892371800002
11
-49.023703428599994
21
-7.0405983695799996
31
208.76570365700002
11
-44.189723514599997
21
-6.3412218187399993
31
206.62304922900003
11
-39.853294671299999
21
-5.8953637713300004
31
204.39825479000001
11
-36.060841377499997
21
-5.6653445121699999
31
202.12679456500001
11
-32.8283379091
21
-5.6164927476099997
31
199.83466923899999
11
-30.149261243399998
21
-5.7193886814699999
31
197.54084703700002
11
-28.002074704499996
21
-5.9508813193800005
31
195.25942503700003
11
-26.356675202399998
21
-6.2942822442099997
31
193.00137646600001
11
-25.179589815599996
21
-6.7390705628999994
31
190.77589409300001
11
-24.4379357109
21
-7.2803562622599998
31
188.59140885100001
11
-24.102284636
21
-7.9182675944899996
31
186.456383915
11
-24.148628788000003
21
-8.6573617087999999
31
184.37998107300001
11
-24.559654442099998
21
-9.5061071865399995
31
182.37268370300001
11
-25.325512514199996
21
-10.476449255
31
180.44694782800002
11
-26.444244077699999
21
-11.583438821599998
31
178.617943207
11
-27.921981412299996
21
-12.844880417199999
31
176.90444102499998
11
-29.773005064699998
21
-14.280926998799998
31
175.32990219200002
11
-32.019695111499999
21
-15.913516573499999
31
173.92381780299999
11
-34.692368022799997
21
-17.765501793399999
31
172.723346233
11
-37.828933962699999
21
-19.859263976699999
31
171.77527194300001
11
-41.474234032000005
21
-22.2145230906
31
171.13826657000001
11
-45.6788086221
21
-24.844953803799999
31
170.88534252600002
11
-50.496685204199999
21
-27.753101889099998
31
171.10622048799999
11
-55.981526037400002
21
-30.9229917533
31
171.90903678400002
11
-62.180106256099997
21
-34.309792225499997
31
173.42033198799999
11
-69.121572012499996
21
-37.826108663599996
31
175.78152531299997
11
-76.800287777699992
21
-41.325168588899999
31
179.13908185600002
11
-85.149540404799993
21
-44.582813543699999
31
183.62450204300001
11
-94.003593597600002
21
-47.2833739075
31
189.319754351
11
-103.04808379400001
21
-49.019501419000008
31
196.20537247200002
11
-111.766027243
21
-49.321801689000004
31
204.09482033
11
-119.40106619000002
21
-47.736138944000004
31
212.57262785200001
11
-124.97845621000002
21
-43.955389461299994
31
220.97357875700001
11
-127.432370095
21
-37.978737863799999
31
228.45204421900002
11
-125.856823999
21
-30.223276567999999
31
234.16709304600002
11
-119.81345181899999
21
-21.493076508400002
31
237.53540440699999
11
-109.543195436
21
-12.772829657900001
31
238.42434766700001
11
-95.9425178093
21
-4.9363130691099997
31
237.16418181200001
11
-80.305145074100011
21
1.4715673439800001
31
234.37641232600001
11
-63.975522324499998
21
6.2840680515699994
31
230.736099559
11
-48.078203727899989
21
9.62190904777
31
226.79574268599998
11
-33.394955057600001
21
11.755055647099999
31
222.91835014599999
11
-20.366614287800001
21
12.989337126400001
31
219.29328820000001
11
-9.1605292730900008
21
13.601544076
31
215.98699182300004
11
0.245766740442
21
13.814701134199998
31
212.99451417400002
11
7.9908939910000001
21
13.796592534399998
31
210.277853975
11
14.274429721099999
21
13.668101435099999
31
207.78961390000001
11
19.3194933449
21
13.513789923199999
31
205.48543758699998
11
23.349288342799998
21
13.391466781899998
31
203.32929962400002
11
26.573545096899998
21
13.339819907000001
31
201.29481964700003
11
29.181585270099998
21
13.384174461000001
31
199.36466844099999
11
31.339637798699997
21
13.5407299849
31
197.52926967700003
11
33.190781870099997
21
13.819637037699998
31
195.785428981
11
34.856427807799996
21
14.2271966715
31
194.135178967
11
36.438610225399998
21
14.767383679599998
31
192.58493882400001
11
38.022609402399993
21
15.4428294807
31
191.144990382
11
39.679576843600003
21
16.2553531085
31
189.829228855
11
41.468946428699994
21
17.206093645299998
31
188.65512930800003
11
43.440480066299997
21
18.295269647399998
31
187.643863001
11
45.635836291499999
21
19.5215679535
31
186.82049067700001
11
48.089567860000002
21
20.881145606199997
31
186.214145917
11
50.829454345499997
21
22.366216884299995
31
185.8580963
11
53.876061978099997
21
23.963198122399998
31
185.78953019799999
11
57.241400761099996
21
25.650405303599996
31
186.04886181200001
11
60.926527354099996
21
27.395357191800002
31
186.67827979000003
11
64.917937864699994
21
29.1518483736
31
187.71919735099999
11
69.182636884700003
21
30.857142171499994
31
189.20822086800001
11
73.6619057897
21
32.429906213699994
31
191.171289468
11
78.264093439299984
21
33.769860635199997
31
193.615829451
11
82.857294718299983
21
34.760458290399995
31
196.52121639000001
11
87.263612632700003
21
35.2760941875
31
199.82863192100001
11
91.257736175899993
21
35.1950477695
31
203.43252220300002
11
94.573457457399996
21
34.418228298700001
31
207.17703766100001
11
96.921770058299984
21
32.891609807899997
31
210.861402013
11
98.022370380199987
21
30.627365559799998
31
214.25716883700002
11
97.64614499439999
21
27.7164286332
31
217.13707168900001
11
95.66039534059999
21
24.325480687100001
31
219.31016103000002
11
92.063923183799986
21
20.6755491742
31
220.653460209
11
86.999298956499999
21
17.006452493000001
31
221.129663776
11
80.736228681799986
21
13.537576120699999
31
220.78500287300002
11
73.630236745800005
21
10.436903739599998
31
219.72924365599999
11
66.069277050099998
21
7.8059461577000002
31
218.10627742400001
11
58.423064117999999
21
5.6811810140399999
31
216.06543055999998
11
51.005900221399997
21
4.04705011216
31
213.74060938700001
11
44.057025947200003
21
2.8536932189800002
31
211.239553642
11
37.736764453699998
21
2.0338798272099998
31
208.64165453300001
11
32.133744218299995
21
1.51614937023
31
206.00114695299999
11
27.278061357599999
21
1.2334208072199999
31
203.35261229400001
11
23.156278243099997
21
1.1276610767899999
31
200.71668052500002
11
19.725614609400001
21
1.1516886829199999
31
198.10484469300002
11
16.925971864599997
21
1.26916705927
31
195.52304815500003
11
14.689334864599999
21
1.45361207942
31
192.97412266500001
11
12.946633089499999
21
1.68697750231
31
190.45932454799998
11
11.632409596700001
21
1.9581666852499999
31
187.97923995800002
11
10.687739866299999
21
2.2616650682999997
31
185.53428798900001
11
10.061839191799999
21
2.5963875971099997
31
183.12499023200002
11
9.7127464032699997
21
2.9647742016500001
31
180.75212038199999
11
9.6074032530999993
21
3.3721319089899997
31
178.41680596700002
11
9.7213792028799997
21
3.8262046337900002
31
176.12062672300002
11
10.038428824499999
21
4.3369446175400004
31
173.86573817000001
11
10.550016951899998
21
4.91645847733
31
171.65504166400001
11
11.254905746299999
21
5.5791028813499999
31
169.49242109599999
11
12.1588671862
21
6.3417078436200001
31
167.383070011
11
13.274562668399998
21
7.22390780916
31
165.333940388
11
14.621616661199999
21
8.24856043618
31
163.35435570600001
11
16.226901830100001
21
9.4422283219299992
31
161.45684660100002
11
18.1250469071
21
10.835687133499999
31
159.65828828300002
11
20.359173751
21
12.464400549699999
31
157.98144579000001
11
22.981864029599997
21
14.368861615499998
31
156.45706652300001
11
26.056344984000003
21
16.594631421300001
31
155.126698116
11
29.6578613798
21
19.191793861499999
31
154.046448787
11
33.875154882599993
21
22.213366297199997
31
153.29193345800002
11
38.811878791299996
21
25.711927190200001
31
152.964632311
11
44.587587264500002
21
29.7333006506
31
153.19976539800001
11
51.337557690299995
21
34.305531330899996
31
154.17543088799999
11
59.209945039099992
21
39.4205817653
31
156.12192514099999
11
68.357281851300002
21
45.005311134300001
31
159.32843166800001
11
78.916558771499993
21
50.877854956799993
31
164.14094838100002
11
90.967349595000002
21
56.6869633572
31
170.93956538300003
11
104.45062568
21
61.838563212699995
31
180.07475135700003
11
119.02540729
21
65.432154223499992
31
191.73424192900001
11
133.849726175
21
66.266933432899989
31
205.71756920500002
11
147.32824257500002
21
63.027330917899995
31
221.14582965500003
11
157.00567760500002
21
54.761267825299996
31
236.26637863399998
11
159.942289797
21
41.588066155199996
31
248.67366723900003
11
153.78855931999999
21
25.1738029202
31
256.1791498
11
138.10217283399999
21
8.3265278089999999
31
257.95215466800005
11
114.81604848399999
21
-6.2627989041099994
31
254.96488317100003
11
87.342334240500008
21
-17.1320970035
31
249.29049340700001
11
59.112353153100003
21
-24.190417432299999
31
242.96570583900001
11
32.628277082899999
21
-28.136126423199997
31
237.31881762
11
9.2922573151099996
21
-29.837112543599996
31
232.92063726000003
11
-10.331918604199998
21
-30.006767824000001
31
229.82684935500001
11
-26.182942242199999
21
-29.1352581409
31
227.82839128399999
11
-38.4511978532
21
-27.537973238499998
31
226.61658889200001
11
-47.434536372300002
21
-25.427303934899999
31
225.87304635200002
11
-53.472300108900001
21
-22.9684289072
31
225.31515834800001
11
-56.923519892399995
21
-20.310168760000003
31
224.71866635200001
11
-58.163035651899989
21
-17.594496729700001
31
223.92696849399999
11
-57.579233971500003
21
-14.952456950799998
31
222.85051491800002
11
-55.566013498399997
21
-12.494657362199998
31
221.45808119700001
11
-52.508392074199996
21
-10.3028055933
31
219.76251447700002
11
-48.765154149200001
21
-8.4259088175799999
31
217.80444993399999
11
-44.653015887999999
21
-6.8818541235499993
31
215.63736358900002
11
-40.435713444800001
21
-5.6630562841199996
31
213.31618441300003
11
-36.319428434899997
21
-4.7440604344699997
31
210.890193173
11
-32.454138709699997
21
-4.0891821741599994
31
208.39973870699998
11
-28.939380716599995
21
-3.6589492365899998
31
205.875695181
11
-25.832576422999999
21
-3.41483041538
31
203.34050722300003
11
-23.158276058799999
21
-3.3222625318999999
31
200.80990227000001
11
-20.917110549599997
21
-3.3522675911099995
31
198.29467647200002
11
-19.093721736299997
21
-3.4820433910899999
31
195.802249899
11
-17.663332273399998
21
-3.6948897330400001
31
193.33788843400001
11
-16.596895350099999
21
-3.9797624262600002
31
190.90560487800002
11
-15.864934762499999
21
-4.3306675065700002
31
188.50880332200001
11
-15.440272808
21
-4.7460373595599998
31
186.15074383799998
11
-15.299873354900001
21
-5.2281750751199993
31
183.834898823
11
-15.4260223318
21
-5.7828132731699995
31
181.56526050100001
11
-15.807043938099998
21
-6.4188061466500006
31
179.34664790100001
11
-16.437718926199999
21
-7.14795518701
31
177.18505423300002
11
-17.319537944499999
21
-7.9849566787899997
31
175.08807281900002
11
-18.4608917527
21
-8.9474495041399997
31
173.065441631
11
-19.877272544299998
21
-10.0561321255
31
171.12975279500003
11
-21.591536584499998
21
-11.3349046834
31
169.297383623
11
-23.6342566575
21
-12.810972247699999
31
167.58971933200002
11
-26.044171056500002
21
-14.514813584799999
31
166.03475349000001
11
-28.868710240199999
21
-16.479869811499999
31
164.66916760000001
11
-32.164546669299995
21
-18.741730053799998
31
163.54100046900001
11
-35.998057445299999
21
-21.336474887599998
31
162.71300928300002
11
-40.445495398000006
21
-24.297668697599999
31
162.26677454400001
11
-45.592500937599993
21
-27.651255684899997
31
162.30746777000002
11
-51.532299613200003
21
-31.4073083161
31
162.968908145
11
-58.361426818299989
21
-35.547234727000003
31
164.41795546000003
11
-66.1709589317
21
-40.004799624299999
31
166.85622651900002
11
-75.029829274000008
21
-44.639489752900005
31
170.515328708
11
-84.954766470600006
21
-49.202119692399997
31
175.63908673900002
11
-95.859104241499992
21
-53.296584003499994
31
182.44288945699998
11
-107.472124253
21
-56.350513291299997
31
191.03816132200001
11
-119.22714536500001
21
-57.622921964100001
31
201.314483843
11
-130.14052163900001
21
-56.294780206599995
31
212.79357601000001
11
-138.75400241400001
21
-51.688945908199997
31
224.51830711700001
11
-143.27107398800001
21
-43.608625008099999
31
235.10091658900001
11
-142.001114567
21
-32.646518725299998
31
243.05034521100001
11
-134.027938393
21
-20.197088229899997
31
247.32627610200001
11
-119.72311295300001
21
-8.0209430160299995
31
247.79624224100002
11
-100.695571598
21
2.4141240126099999
31
245.23751997800002
11
-79.186375780899994
21
10.3658638941
31
240.88981524899998
11
-57.340847895399996
21
15.808675581199997
31
235.92435882100003
11
-36.7567021614
21
19.146061076599999
31
231.1457786
11
-18.384503945100001
21
20.911221473699996
31
226.961218715
11
-2.6412700824600002
21
21.5882157251
31
223.48696175500004
11
10.415728273599999
21
21.549422548999999
31
220.673899847
11
20.937833724800001
21
21.0581373439
31
218.40058172000002
11
29.179884033599997
21
20.294071080199998
31
216.52834842100003
11
35.436222230799999
21
19.379962731999999
31
214.92904891400002
11
40.005428892099999
21
18.4017851278
31
213.496501951
11
43.172537906799995
21
17.421859013499997
31
212.14934403400002
11
45.200865489000002
21
16.486538872199997
31
210.82965501900003
11
46.3286788825
21
15.630449585199999
31
209.499701937
11
46.768141405599991
21
14.878852169099998
31
208.13803818
11
46.705338544899995
21
14.249175724599999
31
206.73563437000001
11
46.300929322699993
21
13.752286765799999
31
205.29241723300001
11
45.691296179799998
21
13.393736651299999
31
203.81440774499998
11
44.990161170500002
21
13.1750295063
31
202.31152128000002
11
44.290621493899998
21
13.0948584018
31
200.79600297100001
11
43.667511325700005
21
13.150231774299998
31
199.28141659800002
11
43.179959822399994
21
13.3374236955
31
197.78208051799999
11
42.874001170599996
21
13.652707257799999
31
196.31284245100002
11
42.785100566099999
21
14.092855575299998
31
194.88909742900003
11
42.940482387499998
21
14.655412744299998
31
193.526972083
11
43.361174796499995
21
15.338745630000002
31
192.24361727800002
11
44.063711407699998
21
16.141887526399998
31
191.057566213
11
45.061450848
21
17.064178710299998
31
189.98912401500002
11
46.3654865691
21
18.104699208099998
31
189.060756658
11
47.985121489099996
21
19.2614782783
31
188.29744091400002
11
49.927875358099996
21
20.530455989399996
31
187.72692225100002
11
52.198978494099997
21
21.9041683819
31
187.379803498
11
54.800286041499994
21
23.370133971099996
31
187.28935309300002
11
57.728526211199991
21
24.9089428566
31
187.490878632
11
60.972781283000003
21
26.4921001477
31
188.02046315000001
11
64.51110416809999
21
28.079764748699997
31
188.91281800400003
11
68.306217270499999
21
29.6186645274
31
190.197987711
11
72.300356816600001
21
31.040664608299998
31
191.896683798
11
76.409558268599994
21
32.262702639799997
31
194.01417902899999
11
80.51807172369999
21
33.189029304599998
31
196.53302312800002
11
84.474167424899989
21
33.7167868955
31
199.40539389099999
11
88.089272798899998
21
33.745733707299998
31
202.54664907900002
11
91.142941573800002
21
33.192154982699996
31
205.83241463300001
11
93.396143584100002
21
32.005570703899998
31
209.10192910799998
11
94.614200100799991
21
30.184966306399996
31
212.169786703
11
94.598006267399995
21
27.789678994700001
31
214.84623268999999
11
93.218388830799995
21
24.939942119299999
31
216.962970541
11
90.445100228000001
21
21.804356286299999
31
218.398287885
11
86.361269244900001
21
18.575920159399999
31
219.09412859500003
11
81.157491362599998
21
15.442777619599999
31
219.05984117000003
11
75.106197608000002
21
12.561949179099997
31
218.362080182
11
68.52336756439999
21
10.042730659
31
217.105232965
11
61.7278458503
21
7.9422275465500007
31
215.409207262
11
55.00741199689999
21
6.2711570438599997
31
213.39063457500001
11
48.596766693299998
21
5.0056126804000005
31
211.15070751899998
11
42.668174477399994
21
4.10036296016
31
208.76988012300001
11
37.3324223925
21
3.5005899782299998
31
206.30778007200001
11
32.646504624000002
21
3.15063583325
31
203.80612763800002
11
28.624592335499997
21
2.9995965581399995
31
201.29278791600001
11
25.2496901397
21
3.0042899425300003
31
198.78574592900003
0
ENDSEC
0
SECTION
2
OBJECTS
0
DICTIONARY
5
C
100
AcDbDictionary
3
ACAD_GROUP
350
D
3
ACAD_MLINESTYLE
350
17
0
DICTIONARY
5
D
100
AcDbDictionary
0
DICTIONARY
5
1A
330
C
100
AcDbDictionary
0
DICTIONARY
5
17
100
AcDbDictionary
0
ENDSEC
0
EOF
